<?xml version="1.0" encoding="UTF-8" standalone="no"?>
<!-- Creator: CorelDRAW -->

<svg
   xml:space="preserve"
   width="193.60381mm"
   height="193.60379mm"
   version="1.1"
   style="clip-rule:evenodd;fill-rule:evenodd;image-rendering:optimizeQuality;shape-rendering:geometricPrecision;text-rendering:geometricPrecision"
   viewBox="0 0 19360.381 19360.379"
   id="svg44"
   sodipodi:docname="AMMOBOX-es-svg.svg"
   inkscape:export-filename="AMMOBOX-logo-circulo.svg"
   inkscape:export-xdpi="96"
   inkscape:export-ydpi="96"
   xmlns:inkscape="http://www.inkscape.org/namespaces/inkscape"
   xmlns:sodipodi="http://sodipodi.sourceforge.net/DTD/sodipodi-0.dtd"
   xmlns="http://www.w3.org/2000/svg"
   xmlns:svg="http://www.w3.org/2000/svg"><sodipodi:namedview
   id="namedview44"
   pagecolor="#ffffff"
   bordercolor="#000000"
   borderopacity="0.25"
   inkscape:showpageshadow="2"
   inkscape:pageopacity="0.0"
   inkscape:pagecheckerboard="0"
   inkscape:deskcolor="#d1d1d1"
   inkscape:document-units="mm" />
 <defs
   id="defs1"><style
     type="text/css"
     id="style1">
   <![CDATA[
    .str0 {stroke:#373435;stroke-width:55.16;stroke-miterlimit:22.9256}
    .fil1 {fill:none}
    .fil3 {fill:#FEFEFE}
    .fil0 {fill:#373435}
    .fil2 {fill:#FFD62D}
    .fil5 {fill:#373435;fill-rule:nonzero}
    .fil4 {fill:#FFD62D;fill-rule:nonzero}
   ]]>
  </style></defs>
 <g
   id="Layer_x0020_1"
   inkscape:label="Layer 1"
   inkscape:groupmode="layer"
   transform="translate(-5169.2801,-826.94002)">
  <metadata
   id="CorelCorpID_0Corel-Layer" />
  <g
   id="_1445125753456">
   <path
   class="fil0"
   d="m 14849.51,854.52 c 5330.95,0 9652.57,4321.62 9652.57,9652.62 0,5330.95 -4321.62,9652.6 -9652.57,9652.6 -5331,0 -9652.65,-4321.65 -9652.65,-9652.6 0,-5331 4321.65,-9652.62 9652.65,-9652.62 z"
   id="path1" />
   <path
   class="fil1 str0"
   d="m 14849.51,854.52 c 5330.95,0 9652.57,4321.62 9652.57,9652.62 0,5330.95 -4321.62,9652.6 -9652.57,9652.6 -5331,0 -9652.65,-4321.65 -9652.65,-9652.6 0,-5331 4321.65,-9652.62 9652.65,-9652.62 z"
   id="path2" />
   <path
   class="fil2"
   d="m 14849.51,1232.41 c 5122.26,0 9274.68,4152.42 9274.68,9274.73 0,5122.29 -4152.42,9274.74 -9274.68,9274.74 -5122.32,0 -9274.76,-4152.45 -9274.76,-9274.74 0,-5122.31 4152.44,-9274.73 9274.76,-9274.73 z"
   id="path3" />
   <path
   class="fil1 str0"
   d="m 14849.51,1232.41 c 5122.26,0 9274.68,4152.42 9274.68,9274.73 0,5122.29 -4152.42,9274.74 -9274.68,9274.74 -5122.32,0 -9274.76,-4152.45 -9274.76,-9274.74 0,-5122.31 4152.44,-9274.73 9274.76,-9274.73 z"
   id="path4" />
   <path
   class="fil0"
   d="m 14849.51,3105.76 c 4087.64,0 7401.33,3313.77 7401.33,7401.38 0,4087.59 -3313.69,7401.3 -7401.33,7401.3 -4087.64,0 -7401.35,-3313.71 -7401.35,-7401.3 0,-4087.61 3313.71,-7401.38 7401.35,-7401.38 z"
   id="path5" />
   <path
   class="fil1 str0"
   d="m 14849.51,3105.76 c 4087.64,0 7401.33,3313.77 7401.33,7401.38 0,4087.59 -3313.69,7401.3 -7401.33,7401.3 -4087.64,0 -7401.35,-3313.71 -7401.35,-7401.3 0,-4087.61 3313.71,-7401.38 7401.35,-7401.38 z"
   id="path6" />
   <path
   class="fil3"
   d="m 14849.51,3592.31 c 2179.95,0 4123.93,1009.03 5391.35,2585.36 l -1594.5,741.76 -1985.55,-866.78 v 1411.79 l 571.88,234.4 -571.88,235.36 v 661.56 h -771.44 l -466.8,1027.23 -463.79,-1027.23 h -2184.33 l -466.81,1027.23 -463.9,-1027.23 h -1129 v 2445.7 l -655.19,-2445.7 h -1107.3 l -885.75,3259.75 c -86.32,-436.14 -131.85,-886.94 -131.85,-1348.37 0,-3818.99 3095.87,-6914.83 6914.86,-6914.83 z m 5821.5,3181.75 c 692.04,1076.74 1093.37,2358 1093.37,3733.08 0,1374.98 -401.44,2656.21 -1093.37,3733 v -469.09 c 0,-758.14 -244.21,-1289.83 -845.96,-1473.26 511.84,-369.42 845.96,-976.82 845.96,-1663.53 0,-609.25 -263.08,-1156.25 -679.88,-1529.84 l 679.88,316.39 V 8013.68 l -658.39,-314.95 658.39,-313.77 z m -772.6,8457.13 c -1261.79,1348.06 -3056.85,2190.76 -5048.9,2190.76 -3062.5,0 -5659.61,-1991.06 -6568.44,-4749.14 h 873.28 l 172.98,-598.22 h 345.7 l 168.76,598.22 h 2144.67 v -894.55 l 45.64,94.04 h 553.46 l 45.7,-94.04 v 894.55 h 2470.05 v -894.55 l 45.64,94.04 h 553.59 l 45.62,-94.04 v 894.55 h 1271.72 v -877.1 c 229.59,336.08 556.13,598.6 938.37,745.68 -23.36,-1.13 -47.08,-1.71 -71.32,-1.71 -756.74,0 -1224.12,597.83 -1224.12,1341.36 v 1350.15 z"
   id="path7" />
   <path
   class="fil1 str0"
   d="m 14849.51,3592.31 c 2179.95,0 4123.93,1009.03 5391.35,2585.36 l -1594.5,741.76 -1985.55,-866.78 v 1411.79 l 571.88,234.4 -571.88,235.36 v 661.56 h -771.44 l -466.8,1027.23 -463.79,-1027.23 h -2184.33 l -466.81,1027.23 -463.9,-1027.23 h -1129 v 2445.7 l -655.19,-2445.7 h -1107.3 l -885.75,3259.75 c -86.32,-436.14 -131.85,-886.94 -131.85,-1348.37 0,-3818.99 3095.87,-6914.83 6914.86,-6914.83 z m 5821.5,3181.75 c 692.04,1076.74 1093.37,2358 1093.37,3733.08 0,1374.98 -401.44,2656.21 -1093.37,3733 v -469.09 c 0,-758.14 -244.21,-1289.83 -845.96,-1473.26 511.84,-369.42 845.96,-976.82 845.96,-1663.53 0,-609.25 -263.08,-1156.25 -679.88,-1529.84 l 679.88,316.39 V 8013.68 l -658.39,-314.95 658.39,-313.77 z m -772.6,8457.13 c -1261.79,1348.06 -3056.85,2190.76 -5048.9,2190.76 -3062.5,0 -5659.61,-1991.06 -6568.44,-4749.14 h 873.28 l 172.98,-598.22 h 345.7 l 168.76,598.22 h 2144.67 v -894.55 l 45.64,94.04 h 553.46 l 45.7,-94.04 v 894.55 h 2470.05 v -894.55 l 45.64,94.04 h 553.59 l 45.62,-94.04 v 894.55 h 1271.72 v -877.1 c 229.59,336.08 556.13,598.6 938.37,745.68 -23.36,-1.13 -47.08,-1.71 -71.32,-1.71 -756.74,0 -1224.12,597.83 -1224.12,1341.36 v 1350.15 z"
   id="path8" />
   <path
   class="fil4"
   d="M 10710.25,12329.81 9801.74,8938.73 h -592.67 l -921.47,3391.08 h 614.3 l 173.08,-598.16 h 852.27 l 168.73,598.16 z M 9775.82,11137.87 H 9222.06 L 9498.92,9884.3 Z"
   id="path9" />
   <polygon
   class="fil4"
   points="13037.82,10165.88 12968.57,11133.49 12968.57,12329.81 13565.63,12329.81 13565.63,8938.73 12990.25,8938.73 12306.65,10442.97 11627.47,8938.73 11052.06,8938.73 11052.06,12329.81 11649.09,12329.81 11649.09,11133.49 11579.92,10165.88 12241.76,11529.3 12375.9,11529.3 "
   id="polygon9" />
   <polygon
   class="fil4"
   points="16152.75,10165.88 16083.56,11133.49 16083.56,12329.81 16680.56,12329.81 16680.56,8938.73 16105.18,8938.73 15421.58,10442.97 14742.37,8938.73 14166.99,8938.73 14166.99,12329.81 14764.02,12329.81 14764.02,11133.49 14694.79,10165.88 15356.69,11529.3 15490.78,11529.3 "
   id="polygon10" />
   <path
   class="fil4"
   d="m 16998.13,14888.28 h 3335.56 v -1117.17 c 0,-818.1 -285.55,-1200.73 -1034.02,-1200.73 -458.55,0 -757.04,268.26 -830.59,620.17 -177.36,-268.32 -380.7,-307.9 -584.04,-307.9 -519.14,0 -886.91,387.05 -886.91,998.39 z m 510.49,-606.96 v -400.28 c 0,-299.04 216.27,-373.83 385.08,-373.83 212,0 389.36,118.75 389.36,369.47 v 404.64 z m 2284.22,4.36 h -960.38 v -514.57 c 0,-439.83 151.41,-549.79 480.23,-549.79 315.84,0 480.15,70.39 480.15,540.99 z"
   id="path10" />
   <polygon
   class="fil4"
   points="18650.71,8103.78 20333.69,8886.69 20333.69,8231.3 19818.82,7985.08 19057.42,7699.11 19779.91,7430.8 20333.69,7166.95 20333.69,6511.56 18650.71,7294.47 16998.13,6573.18 16998.13,7232.89 17556.19,7461.63 18252.7,7699.11 17543.26,7941.09 16998.13,8165.36 16998.13,8825.08 "
   id="polygon11" />
   <path
   class="fil2"
   d="m 18665.91,8938.73 c 921.05,0 1667.78,759.08 1667.78,1695.53 0,936.44 -746.73,1695.55 -1667.78,1695.55 -921.08,0 -1667.78,-759.11 -1667.78,-1695.55 0,-936.45 746.7,-1695.53 1667.78,-1695.53 z"
   id="path11" />
   <path
   class="fil5"
   d="m 9065.66,12826.31 h -221.29 v 899.71 h 160.84 v -275.76 h 60.45 c 208.74,0 311.39,-86.46 311.39,-272.24 v -82.95 c 0,-190.46 -99.2,-268.76 -311.39,-268.76 z m 0,468.57 h -61.64 v -321.35 h 63.93 c 122.04,0 149.39,44.4 149.39,129.73 v 66.57 c 0,85.33 -37.61,125.05 -151.68,125.05 z m 829.24,431.14 h 183.68 l -192.75,-342.34 c 106.07,-35.05 151.66,-107.5 151.66,-240.71 v -46.74 c 0,-190.46 -99.23,-269.92 -311.37,-269.92 h -221.29 v 899.71 h 157.36 v -316.64 h 58.19 z m -168.78,-465.04 h -65.06 v -286.27 h 67.35 c 122.04,0 143.68,44.38 143.68,129.71 v 30.36 c 0,85.3 -31.9,126.2 -145.97,126.2 z m 961.59,-434.67 h -505.32 v 900.89 h 521.29 v -147.21 h -363.9 v -237.21 h 296.61 v -144.9 h -296.61 v -231.33 h 347.93 z m 709.47,621.63 h -157.36 c 0,88.78 -28.55,137.84 -142.64,137.84 -114.01,0 -135.75,-49.06 -135.75,-134.34 v -349.37 c 0,-85.3 21.74,-134.39 135.75,-134.39 122.09,0 142.64,49.09 142.64,136.74 h 157.36 c 0,-199.81 -87.78,-279.24 -300,-279.24 -212.14,0 -293.14,78.24 -293.14,268.73 v 365.72 c 0,185.8 84.42,268.73 293.14,268.73 208.77,0 300,-82.93 300,-280.42 z m 288.59,279.26 v -899.73 h -158.53 v 899.73 z m 539.55,-666.03 h 158.55 c -14.83,-179.95 -119.74,-239.49 -278.3,-239.49 -180.22,0 -280.58,87.59 -280.58,255.85 0,185.8 104.91,236.05 204.19,248.87 93.52,12.85 216.69,12.85 216.69,119.2 0,101.65 -43.36,142.55 -138.03,142.55 -100.36,0 -130.01,-37.4 -133.43,-106.29 h -158.55 c 0,144.85 69.58,253.51 288.56,253.51 211.06,0 298.87,-87.62 298.87,-295.62 0,-179.93 -96.94,-222.01 -198.46,-238.37 -133.51,-21.04 -221.29,-11.69 -221.29,-125.01 0,-85.33 35.33,-113.35 122.03,-113.35 76.43,0 115.23,22.23 119.75,98.15 z m 467.71,666.03 v -899.73 h -158.55 v 899.73 z m 440.3,7.01 c 208.72,0 300,-82.99 300,-268.73 v -380.92 c 0,-190.49 -87.86,-268.73 -300,-268.73 -212.16,0 -293.16,78.24 -293.16,268.73 v 380.92 c 0,185.74 84.39,268.73 293.16,268.73 z m 0,-142.56 c -114.09,0 -135.74,-49.06 -135.74,-134.36 v -364.57 c 0,-81.8 21.65,-134.36 135.74,-134.36 122.04,0 142.56,52.56 142.56,134.36 v 364.57 c 0,85.3 -28.49,134.36 -142.56,134.36 z m 1002.63,134.37 v -898.55 h -156.26 v 212.63 l 17.13,379.79 -257.78,-592.42 h -156.32 v 898.55 h 156.32 V 13497 l -13.68,-341.15 257.75,570.17 z m 433.46,-899.71 v 899.71 h 289.74 c 212.17,0 311.43,-77.08 311.43,-279.27 0,-123.83 -69.59,-204.49 -160.84,-224.32 69.58,-47.88 79.89,-102.84 79.89,-157.75 0,-140.22 -100.41,-238.37 -258.99,-238.37 z m 157.45,137.87 h 103.78 c 77.52,0 96.99,57.25 96.99,102.84 0,57.25 -30.83,105.16 -95.83,105.16 h -104.94 z m -1.13,615.81 v -259.38 h 133.42 c 114.1,0 142.61,40.87 142.61,129.65 0,85.33 -18.28,129.73 -140.29,129.73 z m 554.31,-753.68 v 899.71 h 289.71 c 212.2,0 311.53,-77.08 311.53,-279.27 0,-123.83 -69.66,-204.49 -160.92,-224.32 69.58,-47.88 79.9,-102.84 79.9,-157.75 0,-140.22 -100.42,-238.37 -258.91,-238.37 z m 157.5,137.87 h 103.81 c 77.55,0 96.91,57.25 96.91,102.84 0,57.25 -30.75,105.16 -95.84,105.16 h -104.88 z m -1.16,615.81 v -259.38 h 133.37 c 114.12,0 142.64,40.87 142.64,129.65 0,85.33 -18.2,129.73 -140.29,129.73 z m 929.63,-518.82 h 158.58 c -14.89,-179.95 -119.77,-239.49 -278.35,-239.49 -180.2,0 -280.59,87.59 -280.59,255.85 0,185.8 104.88,236.05 204.22,248.87 93.49,12.85 216.66,12.85 216.66,119.2 0,101.65 -43.3,142.55 -137.95,142.55 -100.41,0 -130.09,-37.4 -133.51,-106.29 h -158.58 c 0,144.85 69.67,253.51 288.67,253.51 210.92,0 298.79,-87.62 298.79,-295.62 0,-179.93 -96.91,-222.01 -198.48,-238.37 -133.49,-21.04 -221.24,-11.69 -221.24,-125.01 0,-85.33 35.33,-113.35 122.01,-113.35 76.47,0 115.19,22.23 119.77,98.15 z"
   id="path12" />
   <path
   class="fil5"
   d="m 6961.99,10355.02 -74.98,-2.54 -65.34,59.05 -3,88.55 61.08,63.3 306.02,10.62 64.95,-59.05 3,-88.92 -39.82,-42.72 c 29.34,-50.38 44.9,-107.31 47.08,-168.39 7.06,-319.61 -365.42,-458.75 -614.85,-331 -182.68,86.79 -135.6,331.38 -223,401.43 -91.45,75.9 -327.53,50.11 -323.92,-117.73 2.1,-57.31 35.83,-123.17 86.05,-145.15 l 75.02,2.54 63.32,-61.01 2.64,-86.9 -58.71,-65.28 -308,-10.59 -63.35,61.28 -2.92,86.6 40.1,43.11 c -27.34,50.19 -45.23,106.92 -47.36,170.05 -9.84,412.33 593.78,494.41 753.79,197.52 40.4,-77.75 25.4,-222.31 84.34,-269.61 91.42,-75.98 327.55,-50.11 323.94,117.43 -2.13,59.27 -35.88,123.47 -86.08,147.41 z"
   id="path13" />
   <path
   class="fil5"
   d="m 5974.75,9176.13 c -26.2,197.69 115.23,379.62 310.95,405.8 l 647.64,85.71 c 195.73,25.87 379.32,-112.96 405.46,-310.65 26.2,-197.71 -114.89,-379.54 -310.62,-405.82 l -647.63,-85.61 c -195.7,-25.87 -379.63,113.24 -405.8,310.57 z m 209.9,25.98 c 10.51,-80.28 85.8,-137.98 168.02,-127.08 l 645.7,85.32 c 82.19,10.9 140.16,86.22 129.59,166.47 -11.17,82.21 -86.46,140.21 -168.7,129.32 l -645.7,-85.72 c -82.24,-10.89 -139.83,-86.1 -128.91,-168.31 z"
   id="path14" />
   <polygon
   class="fil5"
   points="7574.49,8367.43 7634.45,8154.66 7630.2,8155.32 6864.47,7699.53 7491.59,7876.31 7478.85,7922.12 7522.54,7999.94 7605.82,8023.41 7684.01,7979.81 7766.86,7685.32 7723.23,7607.47 7639.58,7583.64 7561.67,7627.32 7548.98,7673.05 6633.06,7414.83 6646.1,7369.02 6604.1,7291.85 6518.77,7267.64 6442.54,7311.99 6359.7,7606.42 6401.37,7683.67 6437.64,7694.07 7203.67,8147.93 6312.73,8136.74 6276.46,8126.23 6200.87,8168.67 6117.42,8465.01 6159.75,8540.6 6245.02,8564.73 6320.62,8522.43 6333.97,8474.94 7249.92,8733.24 7236.54,8780.73 7280.5,8856.9 7364.18,8880.46 7441.73,8838.7 7525.21,8542.37 7481.25,8466.08 7397.6,8442.64 7320.02,8484.28 7307.31,8530.01 6680.22,8352.93 7570.83,8366.47 "
   id="polygon14" />
   <path
   class="fil5"
   d="m 6775.81,6643.42 c -83.34,180.86 -2.29,396.56 177.3,479.16 l 593.47,273.27 c 179.18,82.71 395.9,3.92 479.22,-176.97 83.28,-181.14 2.23,-396.83 -177.01,-479.16 l -593.77,-273.58 c -179.24,-82.32 -395.56,-3.89 -479.21,177.28 z m 192.64,86.38 c 34.03,-73.56 123.05,-106.35 198.23,-71.6 l 591.82,272.62 c 75.21,34.53 108.28,123.64 74.27,197.19 -34.67,75.12 -123.72,108.19 -198.84,73.28 l -591.87,-272.32 c -75.16,-34.64 -108.22,-123.77 -73.61,-199.17 z"
   id="path15" />
   <path
   class="fil5"
   d="m 8110.44,6454.75 -63.1,-40.07 -86.16,17.9 -47.58,75.01 20.52,85.41 258.39,163.66 86.13,-17.9 47.57,-75.02 -12.85,-57.11 c 50.86,-28.71 93.08,-69.36 125.98,-121.32 167.93,-272.12 -83.07,-580.65 -362.91,-596.78 -201.19,-17.51 -284.37,216.85 -395.21,233.4 -117.34,19.06 -308.11,-122.59 -219.77,-265.61 30.67,-48.27 93.27,-88.15 147.66,-81.53 l 63.43,40.08 85.44,-20.52 46.27,-73.36 -17.59,-86.1 -260.37,-165.01 -85.44,20.6 -46.58,73.28 12.79,57.2 c -49.17,29.59 -93.02,69.66 -126.97,122.89 -217.43,350.72 261.7,726.76 550.31,551.94 73.77,-46.5 134.14,-178.83 209.13,-189.83 117.38,-19.17 307.78,122.59 219.8,265.23 -31.93,50.19 -93.27,88.14 -148.89,83.56 z"
   id="path16" />
   <path
   class="fil5"
   d="m 8647.01,4621.86 316.39,170.76 -127.17,135.14 z m 732.55,552.54 87.87,-1.27 209.82,-225.13 -2.51,-86.59 -63.24,-59.46 -87.87,0.88 -37.92,40.49 -1056.85,-574.14 -146.44,155.29 634.51,1021.75 -37.92,40.37 3.83,87.87 63.24,59.43 86.54,-2.42 212.47,-222.59 -3.84,-87.76 -63.23,-59.96 -87.87,1.27 -27.14,28.82 -109.76,-177.08 203.06,-215.12 183.26,99.15 -27.13,28.79 3.83,87.95 z"
   id="path17" />
   <path
   class="fil5"
   d="m 9866.25,4526.43 -214.81,-250.14 85.35,-73.36 c 109.46,-99.53 164.95,-201.68 167.1,-308.03 0.14,-75.4 -22.14,-152.76 -70.41,-218.04 l -88.66,-103.11 c -130.04,-151.3 -358.42,-168.51 -509.38,-38.45 l -324.97,279.51 -5.1,87.57 56.81,65.88 88.81,6.82 35.96,-30.95 619.12,719.87 -35.63,30.83 -6.73,89.22 56.48,65.88 87.56,7.78 233.65,-200.72 5.13,-87.86 -56.81,-65.86 -87.56,-7.7 z m -225.51,-519.75 -127.23,109.65 -266.35,-309.87 127.19,-109.35 c 62.96,-54.11 157.45,-47.11 210.32,14.2 l 72.2,83.76 c 53.86,62.96 46.83,157.72 -16.13,211.61 z"
   id="path18" />
   <path
   class="fil5"
   d="m 10241.73,3303.36 263.8,244.1 -156.9,99.15 z m 572.05,717.52 85.38,20.63 259.35,-165.97 18.98,-84.44 -46.33,-73.36 -85.47,-20.94 -46.53,29.68 -881.14,-818.82 -180.37,113.85 360.18,1147.36 -46.64,29.79 -17.89,85.8 46.25,73.66 84.47,18.86 261.28,-162.66 17.96,-86.13 -46.25,-73.33 -85.44,-20.93 -33.37,21.21 -62.36,-198.76 250.42,-157.92 152.51,141.75 -33.37,20.94 -17.96,86.1 z"
   id="path19" />
   <polygon
   class="fil5"
   points="11068.33,2550.82 11028.01,2471.91 10945.36,2445.44 10673.51,2585.54 10645.05,2668.91 10685.67,2747.73 10768.33,2774.29 10812.07,2751.81 11247.26,3597.66 11205.18,3619.47 11178.07,3704.5 11217.7,3781.66 11301.04,3809.77 11574.9,3669.09 11602.04,3584.14 11562.35,3506.81 11477.38,3479.37 11435.32,3501.16 10999.82,2655.01 11042.19,2633.5 "
   id="polygon19" />
   <polygon
   class="fil5"
   points="12021.46,3479.95 12055.71,3398.9 12024.77,3317.76 11950.06,3283.23 11988.06,2991.25 12213.49,3181.74 12179.29,3258.52 12210.57,3339.35 12290.55,3376.61 12577.81,3266.1 12612.39,3185.05 12581.14,3103.91 12501.5,3067.04 12435.11,3092.44 12022.04,2743.73 12093.71,2204.26 12160.1,2178.75 12195.29,2099.76 12163.41,2016.86 12084.39,1981.64 11796.77,2092.18 11761.58,2171.17 11793.44,2254.07 11870.19,2287.93 11830.23,2580.49 11604.74,2389.98 11638.94,2313.61 11607.06,2230.71 11527.71,2195.6 11240.42,2306.03 11205.23,2385.01 11237.11,2467.91 11316.13,2503.13 11382.48,2477.65 11797.16,2830.03 11723.88,3365.91 11657.53,3391.31 11622.94,3472.37 11654.19,3553.2 11733.87,3590.46 "
   id="polygon20" />
   <path
   class="fil5"
   d="m 12766.31,1785.31 c -194.16,44.84 -315.59,240.6 -271.51,432.85 l 146.14,637.07 c 43.74,192.26 238.25,316 432.76,271.55 194.16,-44.77 315.29,-240.6 271.19,-433.05 l -145.81,-636.88 c -44.05,-192.14 -238.26,-315.92 -432.77,-271.54 z m 49.04,205.76 c 79.01,-18.17 159.32,32.22 178.04,112.89 l 145.48,635.11 c 18.4,80.94 -31.96,161.31 -110.89,179.4 -80.97,18.4 -161.28,-31.91 -179.73,-112.85 l -145.45,-634.84 c -18.45,-80.94 31.93,-161.31 112.55,-179.71 z"
   id="path20" />
   <polygon
   class="fil5"
   points="14266.93,2922.66 14570.52,2883.25 14624.88,2812.24 14613.63,2726.41 14542.67,2671.75 14495.62,2677.87 14372.48,1734.54 14419.47,1728.39 14474.13,1659.33 14462.63,1571.57 14392.28,1518.92 14088.66,1558.61 14034,1627.31 14045.56,1715.45 14116.24,1767.91 14162.91,1761.67 14264.31,2537 13777.44,1661.07 13709.07,1607.95 13405.48,1647.74 13350.85,1716.8 13362.37,1804.59 13431.07,1857.7 13480.08,1851.17 13603.22,2794.53 13556.17,2800.65 13501.81,2871.67 13513.06,2957.5 13581.74,3012.54 13887.31,2972.36 13939.71,2902.03 13928.46,2815.82 13859.48,2761.24 13812.74,2767.28 13710.69,1986.11 14196.25,2868.36 "
   id="polygon21" />
   <path
   class="fil5"
   d="m 15219.81,1949.93 80.84,350.17 -185.22,-6.04 z m 69.56,914.85 59.07,65.27 307.92,8.36 63.05,-59.16 2.92,-86.76 -59.07,-65 -54.97,-2.04 -268.23,-1172.47 -213.27,-7.3 -347.25,1151.55 -55.29,-1.76 -63.35,61.11 -2.65,86.79 59.08,63.05 307.61,12.55 63.32,-61.01 3.04,-86.9 -59.08,-65.28 -39.49,-1.27 60.12,-199.34 295.78,9.93 46.5,203.04 -39.49,-1.24 -63.24,61.08 z"
   id="path21" />
   <path
   class="fil5"
   d="m 16489.96,1688.59 -430.92,-78.3 -71.21,49.23 -16.05,87.26 49.23,71.13 48.65,9.04 -170.47,935.95 -48.65,-8.74 -71.59,51.27 -15.56,85.52 48.85,72.86 421.46,76.86 c 196.33,35.61 384.89,-96.52 420.19,-290.71 l 117.16,-642.81 c 35.02,-192.44 -88.64,-383.23 -281.09,-418.56 z m -218.04,1142.24 -165.2,-29.98 170.55,-935.95 165.2,29.95 c 81.55,14.7 135.74,92.83 120.74,174.36 l -116.55,640.88 c -15.08,81.6 -93.1,135.71 -174.74,120.74 z"
   id="path22" />
   <path
   class="fil5"
   d="m 17443.42,1916.56 c -192.06,-54.09 -392.09,59.65 -445.9,249.64 l -177.05,629.1 c -53.81,189.72 57.58,391.51 249.56,445.6 191.75,54.11 392.17,-59.55 445.67,-249.65 l 177.39,-628.99 c 53.5,-189.72 -57.61,-391.62 -249.67,-445.7 z m -55.35,203.92 c 77.63,21.78 124.32,104.68 101.77,184.66 l -177.09,626.76 c -22.45,80.06 -105.27,126.29 -182.99,104.5 -80.08,-22.48 -126.28,-105.38 -103.8,-185.36 l 177.05,-626.76 c 22.48,-80.06 105.27,-126.28 185.06,-103.8 z"
   id="path23" />
   <path
   class="fil5"
   d="m 17866.76,3206.56 31.33,-68.2 -29.1,-83.18 -80.75,-36.98 -82.13,31.82 -128.02,278.05 29.18,82.71 80.75,37.26 55.07,-20.35 c 34.92,46.61 81.14,83.09 136.99,108.69 291.78,130.09 564.4,-159.38 543.16,-438.89 -9.32,-201.77 -252.95,-253.15 -283.48,-360.96 -34.64,-113.73 80.34,-321.46 233.68,-253.06 51.87,23.94 99.64,80.86 100.6,135.44 l -31.33,68.31 31.83,81.8 78.79,36.41 83.1,-29.21 128.63,-279.71 -31.83,-81.82 -78.71,-36.3 -55.16,20.16 c -35.9,-44.67 -81.05,-83.09 -138.55,-109.46 -376.51,-169.08 -685.62,355.8 -473.81,618.29 55.85,67.24 195.18,109.74 215.81,182.33 34.61,113.73 -80.48,321.35 -233.82,253.06 -53.81,-24.62 -99.61,-80.94 -102.23,-136.21 z"
   id="path24" />
   <path
   class="fil5"
   d="m 19170.55,3992.39 193.52,-267.07 90.98,66.16 c 122.48,83.48 234.48,113.54 338.67,91.26 73.56,-17.13 143.61,-56.81 195.76,-118.59 l 79.76,-110.34 c 116.96,-161.42 80.75,-387.82 -80.64,-504.56 l -347.06,-251.3 -86.29,15.17 -51.16,70.36 14.09,88.33 38.34,27.63 -556.79,768.99 -38.34,-27.53 -88.36,13.71 -50.88,70.44 12.54,87.28 249.1,180.56 86.76,-15.16 51.19,-70.33 -12.55,-87.37 z m 453.4,-339.66 -135.94,-98.34 239.74,-331.01 135.91,98.46 c 67.05,48.57 82.22,142.45 34.64,207.92 l -64.78,89.71 c -48.84,67.13 -142.56,81.83 -209.57,33.26 z"
   id="path25" />
   <path
   class="fil5"
   d="m 20734.05,3707.5 c -150.6,-130.06 -380.31,-111.88 -509.43,37.48 l -426.93,494.72 c -129.09,149.53 -113.62,379.26 37.37,509.63 151,130.17 380.62,111.88 509.72,-37.37 l 426.62,-494.74 c 129.12,-149.62 113.54,-379.32 -37.35,-509.72 z m -136.32,161.51 c 61.31,52.84 68.01,147.32 13.82,210.26 l -425.65,493.08 c -54.09,62.66 -148.65,69.67 -209.96,16.83 -62.85,-54.2 -69.67,-148.96 -15.47,-211.62 l 425.65,-493.08 c 54.19,-62.94 148.68,-69.67 211.61,-15.47 z"
   id="path26" />
   <path
   class="fil5"
   d="m 20543.15,5156.69 240.02,-225.54 77.17,81.75 c 17.59,18.86 35.3,34.8 54.27,49.42 l -170.16,308.88 -22.86,-24.51 -89.11,-2.82 -63.24,59.46 -2.92,89.61 209.57,222.78 89.11,2.54 63.62,-59.55 2.54,-89.13 -33.67,-36.07 205.49,-374.89 c 23.63,5.08 48.65,8.58 72.28,8.09 75.71,-3.51 151.88,-28.99 214.73,-79.98 l 99.34,-93.5 c 145.45,-136.7 152.46,-365.33 15.86,-510.67 l -293.63,-311.92 -87.87,-1.57 -63.24,59.54 -2.81,89.52 32.68,34.45 -692.04,650.47 -32.29,-34.72 -89.22,-2.54 -63.24,59.46 -4.19,87.84 210.84,224.16 87.87,1.58 63.23,-59.55 4.17,-87.86 z m 509.05,-248.21 -115.11,-122.2 297.72,-279.81 115.11,122.2 c 56.81,60.23 53.89,155.38 -5.08,210.54 l -80.75,75.89 c -60.23,56.93 -155.38,54 -211.89,-6.62 z"
   id="path27" />
   <path
   class="fil5"
   d="m 22270.67,6178.25 -255.46,253.36 -92.26,-161.22 z m -741.35,540.76 -24.52,84.53 154.78,266.19 83.59,22.48 75.48,-42.91 24.13,-84.64 -27.52,-48.04 856.16,-844.91 -105.93,-185.25 -1161.98,310.68 -27.64,-47.77 -85.22,-21.9 -75.4,43.3 -22.48,83.57 151.19,268.15 85.25,21.59 75.4,-43.02 24.21,-84.53 -19.36,-34.26 201.22,-54 146.91,257.04 -147.99,146.53 -19.66,-34.23 -85.22,-21.9 z"
   id="path28" />
   <polygon
   class="fil5"
   points="22992.19,7050.18 23072.97,7013.11 23103.22,6931.98 22975.86,6654.01 22893.65,6621.91 22812.9,6659.17 22782.84,6740.41 22803.47,6784.95 21938.54,7181.54 21918.87,7138.52 21835.12,7107.49 21755.91,7143.48 21724.19,7225.61 21852.44,7505.51 21936.27,7536.76 22014.99,7500.35 22046.12,7416.59 22026.49,7373.6 22891.42,6977.01 22911.16,7020.04 "
   id="polygon28" />
   <path
   class="fil5"
   d="m 22229.33,7864.72 313.3,-103.33 35.21,106.84 c 8.17,24.4 17.21,46.19 28.69,67.32 l -284.87,208.38 -10.31,-31.6 -79.79,-40.3 -82.79,27.25 -39.88,79.79 95.92,290.82 79.68,39.88 82.82,-27.25 39.88,-79.79 -15.59,-46.77 344.63,-253.26 c 19.36,14.29 40.65,28.22 62.36,37.54 69.96,29.01 149.83,37.95 228.62,18.01 l 129.21,-42.72 c 189.33,-62.55 292.37,-267.05 229.51,-456.3 l -134.33,-406.87 -79.13,-38.22 -82.4,27.22 -40.27,79.78 14.89,45.15 -901.41,298.02 -14.9,-44.87 -80.06,-40.27 -82.4,27.25 -40.57,78.02 96.5,292.17 79.09,38.23 82.8,-27.14 40.48,-77.83 z m 566.52,-10.5 -52.81,-159.19 388.09,-128.21 52.46,159.15 c 26.17,78.83 -16.66,163.46 -93.52,189.06 l -104.89,34.72 c -78.79,25.87 -163.43,-16.74 -189.33,-95.53 z"
   id="path29" />
   <path
   class="fil5"
   d="m 22557.3,8735.09 73.08,-16.74 48.04,-73.75 -20.13,-86.57 -75.01,-45.73 -298.49,68.48 -47.68,73.75 19.77,86.49 49.61,31.33 c -15.38,55.84 -16.05,114.81 -2.64,174.74 75.4,310.65 471.29,349.48 679.29,162.19 154.42,-130.67 46.42,-354.72 112.88,-444.9 68.87,-96.72 303.73,-132.33 343.33,30.64 12.47,55.93 -3.31,128.32 -46.11,162.57 l -73.05,16.44 -45.45,75.4 19.47,84.56 73.63,48.04 300.14,-68.78 45.54,-75.4 -19.45,-84.53 -49.72,-31.25 c 13.82,-55.65 16.44,-114.89 2.34,-176.48 -96.14,-401.43 -700.42,-325.73 -779.41,2.32 -18.78,85.25 32.6,221.16 -12.16,282.05 -69.08,96.72 -303.75,132.63 -343.25,-30.64 -13.12,-57.89 3.01,-128.32 45.43,-164.23 z"
   id="path30" />
   <path
   class="fil5"
   d="m 23810.54,9686.62 c -16.05,-198.77 -192.64,-346.75 -389.39,-330.81 l -651.36,53.03 c -196.63,16.05 -346.66,190.41 -330.7,389.47 16.05,198.57 192.75,346.64 389.47,330.59 l 651.28,-52.93 c 196.72,-16.05 346.64,-190.68 330.7,-389.35 z m -210.57,18.97 c 6.73,80.64 -54.66,153.04 -137.17,159.85 l -649.43,52.65 c -82.49,6.7 -154.97,-54.69 -161.7,-135.25 -6.42,-82.6 54.97,-155.08 137.59,-161.81 l 649.32,-52.73 c 82.6,-6.7 155,54.69 161.39,137.29 z"
   id="path31" />
   <polygon
   class="fil5"
   points="23469.33,10848.87 23405.98,10909.96 23402.98,10996.78 23462.02,11062.09 23769.67,11072.37 23833.02,11011.31 23854.89,10364.45 23795.84,10301.1 23707.31,10298.21 23643.96,10357.25 23642.22,10406.56 22691.39,10374.08 22693.04,10324.76 22632.04,10261.42 22545.13,10258.49 22479.86,10317.46 22469.54,10625.48 22530.55,10688.81 22617.14,10691.51 22682.42,10632.74 22684.19,10585.36 23053,10597.77 23044.84,10834.7 23103.88,10899.65 23192.72,10902.65 23256.06,10841.62 23264.23,10605.02 23635,10617.46 23626.95,10854.33 "
   id="polygon31" />
   <polygon
   class="fil5"
   points="23381.66,11754.37 23312.68,11809.03 23301.1,11895.22 23353.83,11963.89 23659.05,12004.38 23728.13,11951.65 23813.74,11304.01 23759.05,11234.95 23455.79,11194.88 23387.2,11247.25 23375.23,11335.37 23427.96,11404.04 23584.53,11424.8 23575.37,11495.19 22632.04,11370.42 22638.05,11323.37 22583.77,11252.38 22497.86,11241.16 22426.93,11295.46 22386.45,11600.73 22441.13,11669.79 22526.96,11680.96 22597.98,11626.66 22604.4,11579.94 23547.44,11704.7 23538.2,11775.14 "
   id="polygon32" />
   <path
   class="fil5"
   d="m 7762.67,14229.94 250.47,-38.86 -77.2,-149.03 -252.65,38.14 -116.52,-225.02 -93.27,13.07 117.24,226.51 -279.79,42.94 -117.24,-226.45 -93.99,15.28 117.24,226.5 -251.13,37.4 77.91,150.5 250.41,-38.86 96.09,185.63 -250.42,38.81 77.14,149.09 251.22,-37.45 116.49,225.07 94.73,-13.85 -117.23,-226.5 279.78,-42.94 117.24,226.5 94.05,-15.3 -116.55,-225.02 250.47,-38.89 -77.94,-150.55 -250.47,38.89 z m -374.53,56.81 279.79,-42.94 96.83,187.07 -279.79,42.94 z"
   id="path32" />
   <path
   class="fil5"
   d="m 8402.5,15223.72 -191.7,230.45 -89.36,-126.23 z m -572.02,507.78 -13.46,72.07 149.67,208.58 71.1,12.16 59.1,-41.87 13.49,-72.03 -26.64,-37.65 642.75,-769.56 -102.7,-145.07 -939.37,350.56 -26.64,-37.56 -72.42,-11.25 -59.1,41.83 -12.14,71.16 146.97,210.42 72.4,11.2 59.15,-41.84 13.46,-72.01 -19.03,-26.91 162.66,-60.7 142.64,201.43 -111.31,133.29 -19,-26.89 -72.45,-11.22 z"
   id="path33" />
   <polygon
   class="fil5"
   points="8426.38,16529.14 8553.79,16662.32 8555.04,16658.87 9206.56,16301.94 8814.19,16677.38 8786.86,16648.83 8712.43,16647.21 8660.08,16697.23 8658.46,16771.7 8834.8,16955.98 8909.23,16957.66 8961.58,16907.55 8963.18,16833.12 8935.87,16804.6 9508.96,16256.25 9536.29,16284.79 9609.57,16287.6 9663.07,16236.39 9663.49,16163.06 9487.18,15978.78 9413.9,15975.99 9391.34,15997.58 8740.94,16355.7 9126.25,15720.61 9148.86,15698.99 9150.41,15626.84 8972.94,15441.34 8900.85,15439.77 8847.34,15490.99 8845.74,15563.08 8874.21,15592.84 8301.09,16141.16 8272.65,16111.43 8199.35,16110.93 8147.06,16161.04 8144.25,16234.32 8321.72,16419.79 8395.05,16420.23 8447.34,16370.15 8450.15,16296.9 8422.82,16268.35 8815.19,15892.95 8428.75,16526.88 "
   id="polygon33" />
   <polygon
   class="fil5"
   points="9411.58,17431.61 9556.54,17545.4 9557.31,17541.84 10151.77,17096.36 9816.47,17523.5 9785.41,17499.12 9711.45,17508 9666.71,17564.95 9675.65,17638.89 9876.29,17796.39 9950.2,17787.54 9994.93,17730.56 9986,17656.65 9954.91,17632.21 10444.72,17008.35 10475.77,17032.73 10548.74,17025.15 10594.44,16966.9 10584.54,16894.26 10383.9,16736.78 10310.99,16744.37 10291.68,16768.91 9698.49,17215.41 9990.1,16532.2 10009.41,16507.6 10000.78,16435.98 9798.87,16277.45 9727.22,16286.06 9681.5,16344.33 9690.13,16415.93 9722.51,16441.33 9232.7,17065.19 9200.33,17039.82 9127.74,17049.72 9083.01,17106.7 9090.62,17179.59 9292.52,17338.11 9365.14,17328.21 9409.87,17271.23 9402.23,17198.29 9371.21,17173.94 9706.51,16746.79 9413.65,17429.04 "
   id="polygon34" />
   <path
   class="fil5"
   d="m 10966.37,17101.93 c -144.15,-82.71 -329.15,-31.42 -411.06,111.33 l -271.05,472.46 c -81.91,142.72 -32.79,328.35 111.37,411.06 144.18,82.74 329.15,31.39 411.06,-111.36 l 271.04,-472.43 c 81.86,-142.8 32.8,-328.38 -111.36,-411.06 z m -86.16,153.53 c 58.53,33.56 79.21,109.96 44.82,169.88 l -270.27,471.03 c -34.39,59.92 -110.73,80.64 -169.25,47.1 -59.99,-34.39 -80.65,-110.78 -46.25,-170.77 l 270.24,-470.99 c 34.39,-59.96 110.73,-80.64 170.71,-46.25 z"
   id="path34" />
   <path
   class="fil5"
   d="m 11727.16,17503.06 -331.11,-150.36 -69.06,24.71 -30.58,67.38 25.34,67.54 37.46,17.01 -327.97,722.24 -35.94,-16.35 -69.72,26.2 -29.95,65.91 24.68,68.98 325.13,147.68 c 151.3,68.7 330.65,0.17 398.71,-149.7 l 46.94,-103.36 c 24.63,-70.16 22.53,-145.18 -1.3,-212.06 69.03,-24.68 131.91,-75.65 163.88,-146.03 l 20.43,-44.98 c 64.62,-142.33 -3.11,-319.47 -146.94,-384.81 z m -18.14,322.51 -10.87,23.99 c -27.88,61.39 -102.65,90.74 -165.58,62.17 l -127.36,-57.84 114.28,-251.74 127.39,57.84 c 62.94,28.57 90.71,102.67 62.14,165.58 z m -390.08,556.63 -127.39,-57.86 140.85,-310.13 127.39,57.83 c 62.9,28.57 90.73,102.65 62.13,165.59 l -37.4,82.38 c -28.57,62.93 -102.64,90.76 -165.58,62.19 z"
   id="path35" />
   <path
   class="fil5"
   d="m 12433.74,17770.36 c -157.34,-53.53 -329.05,32.29 -382.08,188.09 l -175.46,515.67 c -53.01,155.79 30.78,328.54 188.09,382.07 157.39,53.54 329.13,-32.26 382.1,-188.08 l 175.43,-515.67 c 53.01,-155.8 -30.69,-328.55 -188.08,-382.08 z m -55.13,167.21 c 63.87,21.73 98.78,92.75 76.53,158.16 l -174.91,514.1 c -22.23,65.42 -93.22,100.36 -157.12,78.63 -65.44,-22.23 -100.36,-93.24 -78.13,-158.66 l 174.94,-514.1 c 22.25,-65.45 93.27,-100.42 158.69,-78.13 z"
   id="path36" />
   <polygon
   class="fil5"
   points="12883.82,19092.1 12945.35,19052.25 12961.6,18981.68 12926.13,18922.88 13088.29,18738.98 13155.45,18975.61 13096.32,19012.65 13080.1,19083.22 13117.97,19145.97 13368.16,19203.47 13429.69,19163.62 13445.88,19093.04 13407.99,19030.27 13350.27,19017.03 13227.02,18583.41 13527.93,18244 13585.65,18257.26 13646.82,18218.98 13663.42,18146.84 13625.12,18085.67 13374.92,18028.17 13313.81,18066.47 13297.2,18138.62 13334.3,18197.8 13170.53,18381.37 13103.35,18144.69 13162.48,18107.68 13179.08,18035.5 13140.83,17974.33 12890.64,17916.83 12829.49,17955.14 12812.86,18027.31 12851.17,18088.4 12908.92,18101.69 13031.4,18538.46 12731.2,18874.7 12673.51,18861.43 12611.98,18901.29 12595.76,18971.86 12633.68,19034.6 "
   id="polygon36" />
   <path
   class="fil5"
   d="m 13902.12,19079.53 20.82,-274 93.55,7.12 c 123.31,6.04 216.16,-21.57 280.23,-82.68 44.68,-44.49 77.17,-103.07 87.2,-169.95 l 8.58,-113.26 c 12.58,-165.7 -111.72,-310.51 -277.47,-323.09 l -356.07,-27 -54.8,48.6 -5.52,72.2 48.54,56.53 39.38,2.95 -59.98,789.26 -39.35,-2.98 -56.49,48.51 -5.51,72.2 46.85,56.37 255.96,19.45 54.89,-48.65 5.46,-72.2 -46.89,-56.38 z m 173.64,-438.97 -139.47,-10.6 25.81,-339.66 139.47,10.59 c 68.95,5.24 120.49,65.31 115.39,132.52 l -7,91.92 c -5.24,68.92 -65.28,120.47 -134.2,115.23 z"
   id="path37" />
   <path
   class="fil5"
   d="m 14814.13,19131.96 -6.15,-274.77 93.79,-2.1 c 21.4,-0.49 41.04,-2.59 60.7,-6.31 l 96.81,277.63 -28.02,0.64 -51.38,53.8 1.65,72.4 53.73,51.46 255.1,-5.74 51.46,-53.8 -1.65,-72.4 -53.92,-51.46 -41.04,0.91 -117.92,-336.41 c 16.24,-11.86 32.4,-25.4 45.23,-40.51 40.1,-48.65 66.65,-110.1 70.05,-177.72 l -2.51,-113.51 c -3.81,-166.14 -141.68,-298.02 -307.84,-294.3 l -357.04,8.08 -49.78,53.78 1.63,72.34 53.84,51.52 39.46,-0.94 17.79,791.29 -39.47,0.89 -51.43,53.86 1.6,72.39 52.18,51.49 256.65,-5.76 49.75,-53.78 -1.66,-72.45 -52.12,-51.43 z m 129.76,-453.95 -139.86,3.11 -7.69,-340.51 139.85,-3.15 c 69.09,-1.51 126.29,53.12 127.86,120.61 l 2.04,92.11 c 1.54,69.08 -53.12,126.26 -122.2,127.83 z"
   id="path38" />
   <polygon
   class="fil5"
   points="15911.16,18403.71 15969.93,18447.5 16041.75,18438.18 16087.36,18380.82 16054.38,18126.26 15995.61,18082.44 15460.33,18151.88 15416.34,18209.06 15425.88,18282.5 15483,18326.49 15523.76,18321.19 15625.91,19107.77 15586.7,19112.82 15541.27,19171.86 15550.6,19243.65 15607.9,19289.32 16143.21,19219.85 16188.63,19160.86 16155.87,18907.91 16096.8,18862.46 16025.01,18871.78 15979.56,18930.74 15996.3,19059.7 15800.46,19085.13 15760.86,18779.94 15956.7,18754.51 16002.42,18697.17 15992.91,18623.76 15934.03,18579.94 15738.19,18605.36 15698.39,18298.55 15894.23,18273.12 "
   id="polygon38" />
   <path
   class="fil5"
   d="m 16283.01,18347.72 122.59,530.73 c 36.98,160.34 199.17,263.05 361.17,225.68 49.7,-11.47 93.19,-35.05 129.79,-67.13 l 41.83,27.5 70.44,-16.27 39.49,-63.19 -57.39,-248.48 -63.15,-39.47 -70.55,16.27 -37.84,62.8 5.16,22.45 c 4.08,61.53 -35.33,117.9 -96.22,131.97 -67.24,15.55 -134.37,-26.34 -149.92,-93.69 l -122.21,-529.16 c -15.16,-65.72 26.45,-134.44 93.8,-150 60.89,-14.01 121.32,20.99 144.65,78.08 l 5.16,22.45 61.2,38.28 70.54,-16.33 39.8,-61.56 -57.69,-250.11 -62.77,-37.84 -70.52,16.25 -27.14,43.46 c -45.34,-13.24 -94.76,-15.33 -144.49,-3.83 -161.89,37.37 -262.69,200.8 -225.73,361.14 z"
   id="path39" />
   <polygon
   class="fil5"
   points="17353.24,17881.25 17332.91,17810.02 17269.87,17774.99 17024.58,17845.07 16987.9,17908.58 17008.33,17979.79 17071.38,18014.84 17110.87,18003.51 17328.72,18766.18 17290.77,18777.02 17254.67,18842.07 17274.53,18911.74 17337.96,18948.34 17584.79,18877.84 17620.97,18812.76 17601.14,18743.12 17536.06,18706.97 17498,18717.8 17280.18,17955.14 17318.1,17944.3 "
   id="polygon39" />
   <path
   class="fil5"
   d="m 17951.67,18479.8 -22.94,-58.19 -66.86,-30.18 -68.86,27.25 -28.02,67.76 93.77,237.16 66.85,30.17 68.89,-27.25 19.45,-44.84 c 48.15,5.68 96.8,-1.19 144.29,-19.92 246.64,-101.18 228.93,-432.19 48.26,-580.12 -127.08,-110.78 -298.32,6.54 -380.92,-36.84 -88.53,-44.63 -147.38,-233.71 -17.9,-286.72 44.38,-17.56 106.07,-13.65 139.52,17.32 l 23.06,58.14 67.71,28.05 67.34,-26.62 30.15,-66.82 -94.46,-238.72 -67.71,-28.05 -67.34,26.64 -19.36,44.84 c -47.66,-4.13 -96.89,1.19 -145.92,20.58 -318.54,129.65 -180.01,618.12 100.11,641.79 72.67,4.85 178.32,-54.69 234.09,-25.46 88.53,44.65 147.38,233.71 17.9,286.71 -45.84,18.2 -106.07,13.68 -141.1,-16.68 z"
   id="path40" />
   <polygon
   class="fil5"
   points="18517.23,17374.41 18483.2,17308.66 18414.39,17286.79 18187.91,17404.05 18164.66,17473.58 18198.7,17539.33 18267.4,17561.17 18303.97,17542.25 18668.64,18246.62 18633.51,18264.76 18611.03,18335.7 18644.32,18400.07 18713.76,18423.4 18941.73,18305.33 18964.29,18234.4 18931.03,18170.06 18860.01,18147.53 18824.99,18165.67 18460.34,17461.28 18495.36,17443.16 "
   id="polygon40" />
   <path
   class="fil5"
   d="m 18836.07,17039.43 c -139.71,89.88 -179.32,277.78 -90.37,416.17 l 294.68,458.11 c 89.02,138.42 276.42,180.29 416.11,90.41 139.82,-89.91 179.43,-277.78 90.4,-416.2 l -294.6,-458.11 c -89.02,-138.42 -276.42,-180.28 -416.22,-90.38 z m 96.61,147.22 c 56.81,-36.49 134.17,-19.72 171.52,38.42 l 293.74,456.68 c 37.34,58.16 20.63,135.49 -36.21,171.98 -58.08,37.4 -135.42,20.6 -172.78,-37.54 l -293.72,-456.7 c -37.45,-58.17 -20.63,-135.44 37.45,-172.84 z"
   id="path41" />
   <polygon
   class="fil5"
   points="20418.14,17332.57 20619.13,17175.56 20628.29,17101.68 20583.72,17044.62 20509.78,17035.54 20478.65,17059.81 19990.53,16434.68 20021.66,16410.36 20031.78,16337.77 19986.25,16279.36 19913.28,16271.58 19712.28,16428.56 19702.16,16501.18 19747.69,16559.53 19820.67,16567.31 19851.8,16543.01 20252.83,17056.64 19532.3,16633.83 19460.68,16625 19259.57,16781.98 19249.56,16854.6 19295.1,16912.96 19366.69,16921.73 19399.1,16896.44 19887.22,17521.62 19856.08,17545.95 19847.03,17619.86 19891.6,17676.89 19964.16,17687.01 20166.54,17529.07 20174.31,17456.18 20129.77,17399.09 20057.18,17388.97 20025.97,17413.27 19621.91,16895.75 20344.2,17323.44 "
   id="polygon41" />
   <path
   class="fil5"
   d="m 20279,15899.29 -250.61,263.52 0.66,73.33 53.73,51 72.09,-1.8 28.3,-29.81 574.71,546.64 -27.25,28.63 1.96,74.41 52.43,49.89 73.28,-0.64 246.14,-258.74 c 114.51,-120.39 108.58,-312.31 -10.7,-425.71 l -82.21,-78.27 c -58.28,-46.25 -129.79,-68.95 -200.81,-68.31 -0.69,-73.31 -28.13,-149.43 -84.17,-202.74 l -35.79,-34 c -113.24,-107.81 -302.88,-101.85 -411.76,12.6 z m 298.79,122.87 19.09,18.17 c 48.84,46.47 52.04,126.7 4.35,176.81 l -96.41,101.35 -200.31,-190.57 96.42,-101.32 c 47.66,-50.09 126.75,-52.04 176.86,-4.44 z m 397.83,551.08 -96.42,101.35 -246.72,-234.75 96.31,-101.35 c 47.68,-50.09 126.78,-52.07 176.89,-4.42 l 65.55,62.36 c 50.11,47.63 52.07,126.73 4.39,176.81 z"
   id="path42" />
   <path
   class="fil5"
   d="m 20853.22,15260.84 -225.51,285.33 7.39,72.92 58.08,45.89 71.62,-8.35 25.49,-32.24 622.26,491.87 -24.52,30.99 8.66,73.94 56.84,44.93 72.95,-7.36 221.35,-280.1 c 103.14,-130.42 79.67,-320.96 -49.42,-423.06 l -89.03,-70.38 c -62.16,-40.76 -135.52,-56.75 -206.15,-49.69 -7.39,-72.95 -41.75,-146.2 -102.35,-194.19 l -38.72,-30.67 c -122.7,-96.91 -310.95,-73.71 -408.94,50.17 z m 308.72,95.15 20.63,16.3 c 52.92,41.83 63.43,121.51 20.63,175.7 l -86.79,109.71 -216.88,-171.43 86.71,-109.76 c 42.88,-54.25 121.51,-63.41 175.7,-20.52 z m 446.56,512.41 -86.76,109.77 -267.19,-211.28 86.71,-109.71 c 42.88,-54.22 121.51,-63.43 175.71,-20.58 l 71.01,56.15 c 54.19,42.81 63.35,121.41 20.52,175.65 z"
   id="path43" />
   <path
   class="fil5"
   d="m 21972.49,15246.2 -52.73,-33.65 -71.9,14.7 -39.8,62.41 16.93,71.35 215.01,137.17 71.9,-14.67 39.79,-62.44 -10.5,-47.71 c 42.41,-23.66 77.74,-57.69 105.18,-100.69 140.68,-226.5 -67.62,-484.37 -300.75,-498.38 -167.81,-15.39 -237.86,180.04 -330.31,193.33 -97.77,15.64 -256.26,-103.03 -182.41,-221.87 25.6,-40.21 77.91,-73.2 123.17,-67.79 l 52.84,33.67 71.21,-16.93 39,-61.03 -14.67,-71.84 -216.5,-138.12 -71.21,16.96 -38.99,61.09 10.5,47.68 c -40.98,24.55 -77.74,57.7 -106.15,102.07 -182.13,291.73 216.28,606.49 457.18,461.51 61.78,-38.67 112.47,-148.79 174.82,-157.81 97.8,-15.64 256.26,103.04 182.44,221.85 -26.56,41.61 -77.94,73.22 -124.05,69.14 z"
   id="path44" />
  </g>
 </g>
</svg>
