<?xml version="1.0" encoding="UTF-8"?>
<!DOCTYPE svg PUBLIC "-//W3C//DTD SVG 1.1//EN" "http://www.w3.org/Graphics/SVG/1.1/DTD/svg11.dtd">
<!-- Creator: CorelDRAW -->
<svg xmlns="http://www.w3.org/2000/svg" xml:space="preserve" width="297mm" height="210mm" version="1.1" style="shape-rendering:geometricPrecision; text-rendering:geometricPrecision; image-rendering:optimizeQuality; fill-rule:evenodd; clip-rule:evenodd"
viewBox="0 0 29700 21000"
 xmlns:xlink="http://www.w3.org/1999/xlink"
 xmlns:xodm="http://www.corel.com/coreldraw/odm/2003">
 <defs>
  <style type="text/css">
   <![CDATA[
    .str0 {stroke:#201E1E;stroke-width:70.56;stroke-miterlimit:22.9256}
    .str1 {stroke:#373435;stroke-width:20;stroke-miterlimit:22.9256}
    .str2 {stroke:#373435;stroke-width:20;stroke-miterlimit:22.9256}
    .fil0 {fill:#FEFEFE}
    .fil3 {fill:#FEFEFE}
    .fil1 {fill:#201E1E}
    .fil2 {fill:#FEFEFE;fill-rule:nonzero}
    .fil4 {fill:#201E1E;fill-rule:nonzero}
   ]]>
  </style>
 </defs>
 <g id="Layer_x0020_1">
  <metadata id="CorelCorpID_0Corel-Layer"/>
  <path class="fil0 str0" d="M16151.86 4688.13c158.49,-175.7 401.03,-282.55 633.1,-282.55 1536.14,0 3072.27,0 4608.41,0 124.75,0 242.19,31.23 344.77,86.43 105.8,-55.44 225.14,-86.43 349.38,-86.43l517.34 0c128.94,0 249.8,33.33 354.51,91.81 109.71,-58.87 233.27,-91.81 360.23,-91.81 1665.82,0 3331.64,0 4997.46,0 478.32,0 823.87,454.28 700.35,915.45l-40.64 151.74c-51.28,191.48 -175.6,352.56 -339.75,453.07l-248.1 926.46c-88.41,330.12 -391.49,564.68 -733.6,564.68l-2954.61 0c-79.53,501.91 -488.19,876.64 -1023.33,875.26 -2.82,9.88 -5.66,19.76 -8.52,29.66l-859.41 2864.84 -2.03 6.29c-90.93,282.13 -216.01,555.49 -394.66,793.4 -47.67,63.49 -98.58,123.75 -152.63,180.62 977.48,95.29 1952.9,211.1 2924.96,352.02 328.07,47.56 500.78,368.84 493.77,676.28 -8.23,360.68 -271.16,663.74 -652.55,607.12 -516.72,-76.7 -1034.39,-145.37 -1552.82,-206.58 -14.9,17.03 -31.31,33.05 -49.18,47.86 -4.01,4.4 -7.92,9.03 -11.68,13.43 -26.08,30.56 -50.39,64.07 -73.63,96.81 -37.4,52.69 -74.2,105.73 -109.61,159.79 -35.23,53.77 -66.36,110.61 -96.19,167.51 -25.86,49.32 -48.31,100.59 -65.76,153.5 -8.56,25.97 -27.19,78.39 -28.75,105.43 -4.2,75.56 -27.83,144.86 -66.42,204.56 -0.67,36.16 -5.03,70.85 -10.74,107.34 -10.35,66.18 -21.75,132.29 -30.69,198.67 -19.21,142.74 -106.22,258.68 -231.16,326.75 -95.27,51.9 -199.46,65.95 -306.2,57.16 -111.55,-9.17 -219.21,-39.69 -312.81,-102.66 -10.92,-7.35 -21.44,-15.04 -31.56,-23.07 -114.97,51.77 -241.06,71.66 -367.28,63.35 -157.65,-10.38 -310.82,-49.77 -440.95,-135.91 -27.13,15.2 -55.2,28.88 -84.62,40.95 -91.16,37.39 -189.77,53.54 -288.08,47.43 -83.38,-5.19 -161.11,-27.29 -229.55,-64.02 -73.74,26.71 -151.9,38.62 -230.91,35.27 -109.09,-4.61 -214.32,-30.58 -307.14,-83.37 -1.18,0.56 -2.37,1.11 -3.55,1.67 -91.07,42.44 -190.3,62.79 -290.75,58.27 -82.96,-3.74 -163.51,-25.14 -235.82,-64.11 -76.63,30.23 -157.58,44.22 -240.94,41.43 -109.09,-3.66 -213.25,-26.95 -306.1,-77.61 -4.43,2.09 -8.89,4.15 -13.37,6.17 -89.56,40.52 -187.62,61.2 -285.94,59.01 -84.8,-1.89 -164.09,-21.57 -234.2,-56.6 -75.49,30.27 -156.86,45.04 -238.36,43.21 -106.92,-2.4 -209.56,-26.01 -301.08,-75.24 -1.51,0.78 -3.02,1.55 -4.53,2.33 -88.89,45.44 -186.47,69.49 -286.31,69.53 -97.06,0.04 -189.87,-24.54 -270.45,-71.28 -1.11,0.55 -2.22,1.1 -3.33,1.65 -91,44.81 -189.87,67.62 -291.22,67.1 -124.34,-0.63 -244.92,-27.84 -348.85,-87.62 -10.36,5.96 -20.86,11.8 -31.51,17.54 -88.93,47.96 -187.27,74.45 -288.33,76.02 -83.56,1.3 -165.71,-16.2 -240.17,-51.79 -76.68,36.07 -158.85,55.49 -244.67,56.89 -108.8,1.77 -214.85,-18.07 -309.57,-65.24l-1.95 1.1c-88.22,49.52 -186.67,78.27 -287.92,81.55 -95.06,3.08 -188.96,-18.84 -271.31,-63.64 -88.41,50.34 -186.03,79.26 -288.73,83.01 -28.28,1.03 -56.31,-0.07 -83.85,-3.25 -4.21,22.53 -10.3,45.14 -18.38,67.67 -27.72,77.32 -74.1,145.5 -133.51,201.98 -49.22,46.79 -105.78,84.57 -166.06,115.55 -82.57,42.43 -173.46,64.34 -265.8,70.26 -156.61,10.04 -304.57,-48.43 -411.82,-163.24 -15.18,-16.26 -29.49,-33.26 -42.95,-50.91 -154.82,-8.23 -299.38,-67.43 -408.29,-184.42 -67.55,-72.56 -114.83,-157.46 -145.24,-249.22 -4.74,-1.11 -9.48,-2.28 -14.21,-3.5 -130.64,-33.74 -242.96,-109.22 -324.47,-216.96 -23.33,-30.84 -42.55,-63.2 -58.04,-96.73 -17.83,34.33 -37.74,67.89 -56.12,101.69 -43.6,80.16 -92.51,155.44 -151.3,225.43 -67.62,80.52 -144.4,151.05 -229.25,213.13 -117.27,85.79 -253.99,136.93 -398.67,150.5 -208.15,19.53 -415.91,-17.19 -580.72,-153.76 -115.65,-95.82 -195.08,-218.75 -235.96,-359.18 -4.02,7.54 -8.14,15.04 -12.36,22.5 -22.05,38.97 -44.88,77.39 -68.53,115.41 -28.08,45.13 -54.03,89.87 -84.86,133.48 -36.98,52.31 -77.5,101.93 -121.2,148.77 -50.74,54.37 -108.11,103.5 -170.21,144.47 -85.4,56.35 -179.71,92.29 -281.46,103.85 -86.1,9.79 -170.79,-0.25 -249.3,-30.62 -75.04,45.5 -158.68,74.75 -246.48,84.72 -116.54,13.23 -232.1,0.37 -335.58,-46.25 -102.3,67.99 -217.98,111.96 -340.81,128.07 -161.67,21.19 -324.06,9.16 -468.08,-58.77 -25.05,21.41 -51.18,41.55 -78.19,60.24 -84.56,58.48 -178.56,96.7 -280.54,110.52 -160.78,21.78 -319.82,-10.36 -443.49,-113.43 -33.98,30.28 -69.54,58.75 -106.65,85.54 -14.66,10.59 -29.67,20.69 -45.02,30.26 -6.33,4.77 -12.72,9.46 -19.17,14.06 -83.77,59.75 -176.76,99.63 -278.59,115.26 -86.44,13.28 -172.92,6.01 -253.33,-22.31 -74.22,48.63 -157.46,81.81 -245.72,95.19 -52.77,7.99 -105.52,10.6 -157.25,7.05 -34.46,59.1 -82.55,112.22 -139,157.82 -92.36,74.61 -200.65,117.65 -317.02,137.35 -93.74,15.87 -188.78,13.71 -280.57,-12.34 -88.51,-25.12 -171.12,-69.68 -238.6,-132.5 -61.98,-57.69 -109.42,-126.9 -141.48,-205.18 -4.72,-11.52 -9.01,-23.16 -12.88,-34.9 -4.88,-2.16 -9.73,-4.4 -14.55,-6.7 -25.77,36.81 -52.91,72.63 -81.61,106.9 -88.09,105.2 -196.44,187.55 -334.44,213.32 -159.2,29.72 -319.28,-2.68 -443.53,-110.19 -95.28,-82.44 -156.25,-192.55 -178.81,-316.35l-247.65 130.28c-34.67,140.97 -62.11,283.83 -81.49,427.71 -26.23,194.83 -171.71,343.07 -363.17,381.86 -80.5,16.31 -163.67,16.39 -244.45,2.01 -68.62,-12.22 -133.64,-34.17 -196.47,-64.08 -51.29,-24.41 -98.92,-54.35 -141.65,-90.63 -16.97,5.64 -34.32,10.33 -51.98,14.04 -71.35,15 -143.58,17.1 -215.89,8.65 -82.59,-9.65 -162.05,-34.86 -234.77,-75.22 -94.65,-52.53 -171.55,-129.84 -222.67,-225.48 -28.26,-52.87 -46.43,-108.67 -55.76,-165.97 -160.16,-77.34 -260.34,-256.14 -233.33,-456.87 11.75,-87.28 39.14,-169.98 80.15,-247.86 38.12,-72.37 84.1,-139.87 137.87,-201.55 84.8,-97.27 191.39,-171.25 319.29,-198.18 71.5,-15.06 143.37,-27.88 215.7,-38.29 2.82,-0.41 5.64,-0.81 8.46,-1.21 31.1,-44.85 62.53,-89.48 94.27,-133.89 60.26,-84.32 119.93,-169.06 181.39,-252.53 -550.52,99.71 -1100.55,201.79 -1650.22,304.79 -813.73,152.49 -1169.5,-444.37 -972.83,-1169.95 104.76,-386.5 396.39,-929.97 778.94,-1142.14 -164.94,-180.41 -233.23,-441.11 -135.54,-708.56l1763.28 -5089.12 46.98 -71.13c137.56,-208.27 366.2,-332.34 616.01,-332.36 2743.18,-0.2 5485.72,34.41 8228.58,35.45 77.05,-290 212.37,-541.77 377.8,-792.93 165.27,-250.9 375.72,-463.13 627.29,-627.65 254.9,-166.7 540.39,-275.79 837.01,-341.34 318.84,-70.45 647.82,-94.63 973.82,-94.65 428,-0.03 897.01,44.62 1287.65,230.15 12.62,5.99 25.15,12.15 37.57,18.48z"/>
  <path class="fil1 str1" d="M1757.93 12780.64c1142.19,-221.02 2284.6,-374.04 3428.69,-478.2 -215.36,-11.87 -373.29,-192.87 -297.55,-410.91l630.57 -1752.26c-2.5,0.03 -4.99,0.02 -7.49,-0.01l-1153.43 -0.14 -681.25 1982.02 -19.68 29.66c-63.54,95.77 -167.02,152.45 -282.14,152.43l-1323.87 -0.15c-228.85,-0.03 -402.84,-191.17 -319.23,-415.2l1748.09 -5045.29 19.26 -29.16c63.53,-96.19 166.8,-152.79 282.27,-152.81 3925.61,-0.28 5409.3,35.66 8373.87,35.47 66.77,0 130.08,17.3 183.56,48.45 6.45,-95.9 21.74,-195.97 46.46,-300.89 62.93,-267.03 187.08,-493.61 336.51,-720.48 135.36,-205.49 306.31,-378.27 512.17,-512.91 214.21,-140.08 455.26,-230.47 704.39,-285.53 289.2,-63.9 591.88,-85.21 887.54,-85.23 361.64,-0.03 785.12,34.32 1116.02,191.47 129.25,61.39 236.39,141.85 320.51,239.09 1.93,-14.79 52.03,59.54 56.02,44.62l62.95 -240.95c41.56,-155.19 241.64,-268.15 402.79,-268.15 1590.29,0 3128.19,0 4608.41,0 182.14,0 318.81,142.68 325.34,311.87 0.25,6.77 0.31,13.58 0.19,15.3 1.77,-11.57 25.08,-71.91 27.15,-78.2 47.89,-145.23 187.03,-248.97 341.47,-248.97l517.34 0c187.71,0 327.16,151.58 325.57,327.49 6.57,-15.66 59.65,-126.81 68.37,-141.33 66.25,-110.55 191.06,-186.16 320.8,-186.16 1676.76,0 3241.46,0 4997.46,0 217.29,0 369.92,203.07 313.97,411.97l-40.64 151.74c-36.47,136.19 -152.2,239.85 -288.91,263.19l-298.95 1116.35c-41.56,155.19 -186.05,268.15 -347.21,268.15l-3385.02 0c23.73,59.22 38.61,122.03 43.79,186.5 16.4,394.4 -259.66,702.96 -661.29,688.26 -105.28,-3.84 -191.67,-19.66 -276.44,-65.93 -25.2,154.83 -65.65,294.77 -91.73,384.88l-857.14 2857.21 -0.78 2.42c-76.51,239.06 -182.5,474.43 -333.81,675.93 -141.31,188.2 -316.65,340 -524.22,450.92 -213.93,114.33 -449.7,182.42 -688.73,219.1 -47.78,7.32 -95.77,13.8 -143.89,19.5 1464.3,113.03 2927.78,266.93 4391.64,479.16 198.79,28.81 218.79,530.69 -42.66,491.88 -3935.69,-584.21 -7877.54,-709.06 -11833.05,-565.23 -3908.61,142.11 -7721.23,804.69 -11640.37,1539.14 -1077.55,201.91 -339.44,-1460.97 146.31,-1600.08zm8046.44 -679.92c263.31,-1.72 526.82,-2.28 790.53,-1.82 -7.09,-30.98 -9.74,-64.38 -7.23,-99.88l55.63 -786.47 -461.79 -0.04 -377.14 888.21zm2574.41 13.56c325.1,4.56 650.56,9.82 976.42,15.35 247.24,4.2 494.4,8.73 741.47,13.67l372.64 -1404.63c-177.12,96.22 -369.33,160.39 -568.14,200.04 -297.67,59.35 -597.74,85.34 -901.24,75.97l-588.38 -18.14 -22.25 1045.92c-0.9,25.26 -4.52,49.25 -10.52,71.82z"/>
  <path class="fil2" d="M23676.25 6893.06l0.1 0 0 0.12c99.9,0.07 190.41,40.57 255.88,106.03l0.04 -0.03c65.36,65.37 105.83,155.79 105.92,255.63l0.1 0 0 0.29 0 0.1 -0.1 0c-0.08,99.92 -40.59,190.43 -106.12,255.9 -65.37,65.34 -155.75,105.84 -255.55,105.93l0 0.1 -0.27 0 -0.11 0 0 -0.1c-99.9,-0.07 -190.42,-40.59 -255.9,-106.1 -65.33,-65.38 -105.82,-155.79 -105.9,-255.58l-0.12 0 0 -0.25 0 -0.11 0.12 0c0.05,-99.93 40.58,-190.44 106.1,-255.89 65.36,-65.35 155.74,-105.83 255.53,-105.92l0 -0.12 0.28 0zm-164.05 574.73l0 -425.34 188.54 0c37.94,0 66.75,3.83 86.48,11.47 19.72,7.59 35.45,21.09 47.36,40.4 11.77,19.43 17.6,40.81 17.6,64.15 0,30.25 -9.72,55.6 -29.32,76.28 -19.49,20.7 -49.72,33.86 -90.53,39.54 14.98,7.09 26.26,14.15 33.99,21.19 16.42,15.04 31.98,33.97 46.75,56.52l73.96 115.79 -70.79 0 -56.26 -88.53c-16.44,-25.47 -30.02,-45.11 -40.69,-58.53 -10.62,-13.58 -20.12,-23.08 -28.53,-28.43 -8.44,-5.48 -16.94,-9.2 -25.65,-11.43 -6.44,-1.24 -16.85,-1.95 -31.39,-1.95l-65.26 0 0 188.87 -56.26 0zm56.26 -237.57l121 0c25.66,0 45.88,-2.73 60.33,-8.05 14.54,-5.33 25.56,-13.87 33.06,-25.57 7.54,-11.65 11.31,-24.34 11.31,-38.13 0,-20.06 -7.24,-36.63 -21.88,-49.6 -14.58,-12.99 -37.65,-19.39 -69.24,-19.39l-134.58 0 0 140.74zm107.89 -284.29l0 0.11 -0.1 0 -0.28 0 0 -0.11c-85.13,0.1 -162.33,34.68 -218.27,90.62 -55.93,55.91 -90.58,133.14 -90.62,218.44l0.12 0 0 0.11 0 0.25 -0.12 0c0.09,85.15 34.71,162.36 90.63,218.31 55.91,55.93 133.16,90.59 218.43,90.61l0 -0.11 0.11 0 0.27 0 0 0.11c85.16,-0.09 162.35,-34.71 218.29,-90.61 55.94,-55.93 90.59,-133.16 90.62,-218.46l-0.13 0 0 -0.1 0 -0.29 0.13 0c-0.08,-85.03 -34.69,-162.23 -90.62,-218.17l0 -0.1c-55.9,-55.93 -133.18,-90.56 -218.46,-90.61z"/>
  <path class="fil3 str2" d="M19502.63 8119.23l-855.42 2852.19c-37.93,122.25 -63.31,231.95 -76.51,330.45 -13.13,98.34 -13.44,187.4 -0.86,266.87 38.27,243.52 183.25,408.66 435.38,495.3 252.09,86.82 602.26,129.9 1050.54,130.08 291.9,-0.18 552.55,-17.61 782.04,-52.61 229.03,-35.34 429.4,-98.46 599.87,-189.49 171.16,-91.52 315.35,-215.88 432.95,-372.67 117.82,-156.72 214.9,-354.87 291.35,-593.76l855.65 -2852.15c69.22,-239.3 91.31,-438.19 66.4,-597.48 -38.39,-243.59 -181.58,-408.7 -429.82,-495.29 -248.64,-86.64 -597.22,-129.96 -1045.37,-129.75 -299.42,-0.21 -561.61,17.27 -787.32,52.4 -225.84,35.14 -424.03,98.45 -594.95,189.79 -170.67,91.25 -314.8,215.39 -432.87,372.37 -117.4,156.95 -214.62,354.76 -291.06,593.75zm-15770.78 -1152.61l-1738.08 5016.37c-11.17,28.01 8.26,41.89 58.04,42.12l1323.87 0.15c21.33,-0.15 38.12,-9.52 50.48,-28.14l734.18 -2135.99 1353.64 0.18c21.27,0.27 43.06,-8.32 50.33,-28.22l325.36 -913.53c10.17,-28.07 -8.12,-41.82 -57.98,-41.89l-1321.52 -0.16 320.77 -955.47 1356 -0.07c21.52,0 38.07,-9.24 50.3,-27.99l325.67 -913.19c10.81,-28.37 -8.45,-42.39 -58.46,-42.39l-2722.27 0.19c-21.6,0 -38,9.37 -50.33,28.03zm3224.84 0.2l-1805.04 5015.93c-9.98,28.73 7.46,42.36 57.52,42.36l2598.83 0.15c21.36,-0.38 9.2,-8.54 18.13,-28.14l408.62 -913.53c12.32,-27.85 -7.92,-42.17 -57.68,-42.08l-1248.8 0 417.97 -1180.2 1291.89 0.27c21.6,-0.45 38.43,-9.78 50.91,-28.49l338.02 -913.46c11.37,-28.06 -8.1,-42.15 -57.87,-42.12l-1259.77 0 333.33 -955.47 1356.36 0c21.21,-0.07 38,-9.31 50.41,-28.14l338.01 -913.34c11.41,-28.22 -7.88,-41.97 -57.67,-41.89l-2722.53 -0.08c-21.38,0 -38.34,9.41 -50.64,28.23zm1349.42 5094.02l1211.7 3.55 479.74 -1129.86 944.06 0.08 -76.66 1084.03c-2.2,29.04 12.22,42.2 61.96,42.2l1136.78 -0.08c35.43,0.08 47.16,-9.55 47.82,-28.23l106.7 -5016.16c0.59,-27.88 -26.52,-42.07 -62.15,-42.31l-1697.61 0.11c-14.21,0 -30.8,6.89 -48.94,21.1l-2167.18 5016.32c-6.62,15.63 -8.79,25.66 7.39,35.15 16.5,9.37 35.15,14.1 56.39,14.1zm2719.41 -1982.7l-715.65 -8.16 899.5 -2232.87 -183.85 2241.03zm3620.71 -3174.63l1270.26 0.04c21.35,0 38.14,-9.81 50.09,-29.88l139.45 -418.43c82.33,-244.23 115.43,-450.85 99.7,-620.17 -24.09,-259.17 -151.23,-443.38 -382.29,-553.01 -230.37,-109.5 -562.97,-164.4 -996.74,-164.6 -315.01,0.27 -591.03,26.29 -827.58,78.7 -236.42,52.1 -440.54,134.38 -612.24,246.75 -171.58,112.12 -315.55,256.18 -432.18,433.17 -116.41,176.78 -239.83,382.82 -298.08,631.34 -305.98,1297.07 1180.43,1546.66 1219.54,2381.26 3.89,84.47 -20.25,202.85 -63.76,309.96 -139.31,345.78 -537.5,478.28 -1104.05,401.15 -30.81,-4.11 -53.57,-3.46 -60.76,22.17l-292.49 1044.27c-9.75,35.03 8.35,50.44 57.48,52.25l595.91 18.37c322.28,9.9 601.51,-23.64 838.33,-70.74 237.51,-47.48 441.27,-129.45 612.44,-246.66 171.07,-117.31 316.14,-270.35 434.51,-459.59 119.21,-189.34 225.1,-425.95 317.58,-710 43.6,-134.39 71.94,-260.33 85.7,-377.27 13.54,-117.34 15.66,-225.6 6.57,-325.02 -12.67,-134.62 -45.17,-256.56 -97.18,-366.11 -52.34,-109.9 -114.02,-209.55 -185.25,-299.22 -71.31,-89.41 -148.67,-170.47 -232.7,-242.78 -83.78,-71.88 -167.25,-140.89 -250.27,-205.32 -128.11,-99.68 -223.4,-196.98 -323.41,-291.74 -99.5,-94.29 -155.63,-206.49 -167.69,-336.07 -3.22,-34.7 -2.85,-69.59 0.93,-104.69 3.68,-34.71 16.97,-74.12 30.83,-119.34 45.03,-148.93 79.76,-256.59 150.84,-321.51 70.73,-64.74 165.79,-97.11 284.74,-97.07 140.01,-0.23 214.96,52.23 224.25,156.86 5.54,55.03 -8.16,134.66 -40.35,239.44l-0.58 -7.64 -108.66 298.72c-10.7,34.91 8.35,52.41 57.11,52.41zm4286.26 1615.8c22.38,0.76 44.82,-8.18 51.29,-28.15l126.37 -393.34c73.97,-229.76 78.82,-383.5 52.68,-542.76 -39.99,-243.63 -186.41,-417.06 -439.39,-519.75 -252.7,-103.15 -568.9,-163.53 -1034.9,-174.93 -1453.32,-35.1 -1910.02,645.82 -2040.51,1502.97 -166.1,1092.16 633.17,1265.59 1003.85,1574.61 336.54,280.15 236.76,672.51 19.86,856.1 -211,179.2 -574.84,207.63 -921.96,203.85 -346.78,-3.81 -713.1,-39.54 -1038.31,-88.02l-300.36 1132.19c495.71,125.81 1925.1,214.94 2553.81,14.71 924.98,-294.86 1211.9,-681.83 1382.68,-1291.02 349.41,-1247.64 -674.43,-1479.37 -1226.97,-2021.79 -261.86,-257.02 -233.29,-890.86 385.63,-840.57 561.86,46.12 278.34,362.38 255.51,566.52l1170.72 49.38zm1146.25 2459.31l857.78 -2838.18c31.08,-164.33 167.93,-246 409.73,-246.11 156.88,0 241.06,37.5 252.61,112.47 5.31,32.42 0.92,72.62 -13.14,119.16l-857.62 2838.69 -1.35 -7.17c-35.15,93.8 -81.51,159.26 -139.69,196.52 -58.38,37.71 -147.7,56.43 -269.17,56.34 -163.48,0.42 -250.75,-35.15 -261.99,-105.35 -1.46,-9.43 -0.49,-25.53 3.2,-49.04 3.25,-23.3 9.98,-49.15 19.64,-77.33z"/>
  <path class="fil4" d="M4300.62 13982.8c39.39,-8.16 71.53,-7.45 96.86,0.19 27.04,8.15 46.91,20.87 61.4,38.67 14.97,18.4 25.8,40.34 29.22,67.86 3.36,27.02 2.49,56.49 -1.72,87.71 -2.89,21.48 -17.47,63.28 -43.1,125.29 -25.25,61.14 -57.06,139.33 -95.89,232.57 -38.68,92.87 -82.28,199.64 -130.06,321.43 -47.45,120.94 -94.58,252.5 -139.66,392.79 -45.21,140.69 -88.11,287.42 -126.07,441.73 -37.8,153.69 -68.09,310.95 -89.49,469.87 -3.11,23.11 -19.25,37.75 -46.18,43.21 -29.09,5.89 -61.43,6.19 -94.91,0.23 -33.53,-5.97 -64.25,-16.96 -94.66,-31.44 -30.28,-14.41 -54.89,-31.46 -73.6,-53.05 -17.99,-20.79 -24.37,-43.83 -21.04,-68.56 3.71,-27.57 12.79,-64.81 24.91,-110.12 12.24,-45.71 29.22,-97.07 49.05,-154.45 19.82,-57.39 41.78,-121.04 67.72,-188.3 26.74,-69.27 53.09,-139.36 81.03,-212.08 -84.99,1.62 -170.86,9.7 -253.5,23.94 -84.72,14.59 -165.8,32.11 -245.35,53.28 -0.16,1.21 -0.28,2.03 -0.38,2.83 56.08,-11.77 100.89,-14.77 134.43,-9 33.53,5.77 49.49,11.9 45.89,18.95 -53.93,105.47 -99.21,203.49 -134.4,293.75 -35.68,91.5 -59.24,170.15 -68.25,237.04 -1.79,13.38 -7.46,25.47 -17.09,37.12 -9.65,11.63 -22.73,18.74 -37.26,21.79 -27,5.68 -55.42,6.5 -87.17,2.79 -31.83,-3.72 -60.8,-13.08 -87.1,-27.67 -26.28,-14.59 -48.59,-35.45 -64.01,-64.3 -15.22,-28.47 -19.52,-64.87 -13.58,-109.05 3.77,-27.97 21.91,-73.23 54.7,-136.5 32.62,-62.91 77.2,-138.6 131.35,-225.96 -103.08,30.99 -189.83,60.02 -260.01,87.2 -70.34,27.23 -112.72,42.56 -129.32,46.04 -24.94,5.24 -33.04,-9.41 -28.56,-42.66 4.52,-33.64 14.89,-71.58 37.64,-114.81 23.32,-44.25 51.27,-85.85 85.46,-125.08 35.04,-40.18 68.99,-63.05 100.21,-69.63 64.32,-13.54 126.43,-24.58 190.25,-33.78 61.73,-8.87 121.2,-15.7 178.2,-19.34 60.68,-90.91 124.3,-182.98 192.98,-279.09 68.08,-95.24 133.86,-188.88 201.04,-278.96 68.28,-91.54 134.79,-177.23 198.32,-258.7 63.31,-81.18 123,-153.85 178.48,-216.33 56.34,-63.43 104.01,-113.55 145.64,-152.23 41.42,-38.48 74.71,-60.47 97.58,-65.19zm-481.67 1239.18c43.65,-114.32 91.33,-228.57 136.88,-342.06 45.54,-113.45 86.9,-216.66 124.27,-308.51 38.03,-93.49 68.65,-171.85 92.25,-235.48 23.92,-64.44 38.31,-104.64 40.55,-121.26 -69.94,99.72 -139.75,205.19 -212.05,315.77 -62.39,95.42 -130.69,201.29 -206.77,321.54 -75.18,118.81 -147.51,241.15 -218.78,365.64 97.04,-1.04 177.56,0.55 243.65,4.36zm3176.24 -1598.79c-15.93,16.36 -38.34,50.56 -68.42,103.4 -30.7,53.92 -63.74,120 -99.32,198 -36.01,78.96 -74.97,167.08 -116.54,265.98 -41.56,98.91 -79.65,201.53 -116.17,308.23 -36.65,107.11 -71.42,215.46 -102.35,325.51 -31.03,110.42 -55.24,215.55 -75.12,318.16 -19.76,101.98 -26.48,197.03 -26.05,283.55 0.43,86.92 11.79,160.86 34.5,223.51 3.8,10.5 -13.81,30.25 -45.92,56.2 -33.56,27.1 -76.68,44.68 -132.42,54.12 -39.26,6.64 -73.63,6.04 -104.59,-2.75 -29.32,-8.32 -55.65,-22.21 -75.29,-40.49 -19.82,-18.45 -33.8,-39.47 -43.86,-64.01 -9.7,-23.7 -11.64,-48.5 -8.31,-73.24 12.23,-90.8 35.44,-196.35 69.03,-317.85 33.29,-120.43 68.56,-246.97 111.45,-378.16 42.88,-131.19 88.99,-263.37 138.14,-396.48 49.31,-133.54 99.44,-258.91 149.63,-376.79 -2.3,2 -14.28,28.47 -40.64,76.99 -27.31,50.26 -60.44,112.96 -100.51,191.87 -39.57,77.93 -80,166.11 -126.13,262.2 -46.42,96.71 -92.11,191.05 -133.32,285.64 -40.57,93.12 -73.99,181.94 -104.23,264.54 -30.4,83.05 -50.3,148.75 -57.01,198.62 -2.62,19.45 -18.17,29.99 -44.44,30.21 -26.26,0.24 -55.93,-6.36 -85.85,-21.96 -28.54,-14.88 -54.71,-39.07 -77.34,-70.18 -23.36,-32.12 -33.03,-69.53 -27.03,-114.13 9.77,-72.57 28.89,-155.26 55.83,-249.81 26.65,-93.58 50.57,-187.89 78.32,-281.98 27.95,-94.79 55.96,-183.86 80.61,-268.94 24.34,-83.99 38.98,-154.6 46.57,-210.95 -54.55,135.28 -111.07,263.34 -164.83,384.7 -53.5,120.79 -102.98,235.36 -152.93,341.42 -43.33,92.02 -91.75,181.17 -137.33,270.54 -44.9,88.03 -89.82,167.36 -133.09,238.94 -42.4,70.16 -83.86,128.83 -122.45,174.91 -38.35,45.8 -72.14,71.5 -101.18,76.92 -47.56,8.88 -83.26,2.29 -108.39,-19.46 -25.49,-22.05 -40.62,-50.45 -47.02,-85.58 -6.37,-34.95 -5.62,-71.02 4.78,-110.41 10.2,-38.73 25.49,-69.49 48.92,-93.53 37.23,-6.76 78.57,-37.52 127.16,-89.94 50.6,-54.59 101.96,-121.13 156.64,-204.07 54.36,-82.42 107.59,-175.87 162.6,-278.3 55.4,-103.12 111.55,-206.79 167.19,-312.37 55.47,-105.24 107.46,-208.19 156.78,-310.07 48.51,-100.19 93.1,-190.49 131.2,-269.84 37.62,-78.37 68.98,-143.07 94.35,-191.16 26.1,-49.46 44.29,-74.16 50.51,-75.22 30.96,-5.29 54.73,-2.28 75.62,8.01 20.74,10.22 36.43,23.96 49.25,38.89 15.12,17.58 27.27,37.37 34,62.25 -13.96,103.78 -34.92,214.37 -62.69,330.94 -27.88,116.98 -56.55,232.49 -89.07,346.81 -32.61,114.63 -62.16,222.11 -88.09,324.49 -25.73,101.58 -45.52,188.22 -55.07,259.16 53.87,-115.39 107.94,-231.56 164.03,-348.97 56.29,-117.75 110.13,-231.84 167,-340.8 57.36,-109.95 112.51,-211.94 166.41,-306.69 54.5,-95.81 103.59,-179.99 152.96,-251.63 50.97,-73.94 96.28,-131.1 136.61,-175.12 40.09,-43.75 77.9,-68.43 106.73,-73.18 41.34,-6.8 71.78,-8.07 97.35,-3.45 25.64,4.64 45.02,12.12 59.45,23.21 13.01,10.01 19.03,23.43 19.09,38.06 0.09,14.21 -7.56,29.05 -19.71,41.53zm815.54 1198.8c14.43,-1.91 20.27,4.13 13.56,19.28 -7.78,17.58 -19.72,41.99 -36.12,73.4 -16.22,31.07 -35.09,65.71 -56.44,104.4 -21.35,38.68 -45.42,77.81 -72.5,118.77 -26.12,39.5 -54.8,77.19 -87.74,112.05 -32.95,34.85 -64.99,64.29 -98.7,88.33 -35.49,25.31 -69.91,39.85 -107.05,45.56 -32.92,5.05 -58.42,-0.2 -80.79,-14.59 -22.2,-14.28 -39.52,-36.33 -51.69,-65.75 -12.2,-29.41 -21.44,-65.7 -23.82,-107.98 -2.39,-42.28 -4.28,-88.21 2.6,-139.3 -22.66,48.43 -46.3,95.99 -71.53,141.53 -25.44,45.93 -51.94,86.65 -81.22,123.53 -29.05,36.59 -59.62,67.25 -90.95,90.87 -31.56,23.79 -65.85,39.14 -100.85,44.44 -70.08,10.62 -123.09,1.18 -159.67,-28.32 -36.24,-29.24 -57.85,-72.45 -67.32,-129.75 -9.44,-57.12 -6.46,-124.35 6.99,-201.78 13.44,-77.35 37.44,-157.87 68.77,-241.09 31.48,-83.62 69.64,-165.99 114.19,-248.55 44.19,-81.89 91.13,-157.55 141.14,-223.79 50.69,-67.13 102.85,-121.98 155.39,-164.68 53.98,-43.87 104.06,-68.53 155.58,-76.13 63.79,-9.4 108.31,0.97 135.39,28.78 27.89,28.64 45.82,64.44 51.96,108.82 35.68,-55.13 71.55,-100.61 108.93,-134.49 38.47,-34.88 75.98,-54.4 115.06,-60.06 67.96,-9.85 114.14,-7.41 134.15,8.04 20.2,15.6 22,32.08 5.55,48.82 -27.98,28.49 -57.61,73.84 -92.93,135.54 -35.94,62.76 -68.21,131.84 -98.77,208.96 -30.57,77.14 -60.33,155.71 -88.34,236.34 -28,80.62 -44.99,154.26 -60.01,220.91 -15.09,67 -22.25,119.91 -21.72,161.35 0.53,40.63 14.25,59.06 38.97,55.4 22.65,-3.35 47.57,-19.13 77.22,-48.84 28.68,-28.74 56.7,-62.64 84.09,-99.91 26.96,-36.67 52.68,-71.61 74.85,-106.14 21.23,-33.08 38.49,-57.75 46.02,-72.04 3.32,-6.29 7.54,-10.57 17.75,-11.93zm-820.26 305.68c26.72,-3.81 53.74,-20.33 81.52,-50.8 26.69,-29.26 53.34,-66.26 79.25,-108.92 25.93,-42.68 50.31,-88.21 72.79,-135.83 22.66,-47.98 44.78,-90.28 60.1,-131.54 10.23,-27.6 16.7,-56.84 25.56,-84.93 8.74,-27.73 21.17,-56.61 31.81,-86.46 8.84,-24.78 14.3,-53.91 21.69,-86.21 7.27,-31.68 12.18,-60.35 13.81,-87.53 1.64,-27.19 -1.52,-48.76 -9.23,-66.35 -7.74,-17.57 -20.84,-24.85 -43.55,-21.34 -20.58,3.16 -48.48,25.76 -80.23,71.12 -30.73,43.91 -63.84,98.98 -96.78,164.33 -33.13,65.69 -65.41,134.91 -94.86,209.83 -28.83,73.3 -55.66,143.39 -72.16,206.1 -16.59,63.12 -26.53,114.84 -26.88,154.78 -0.35,40.09 12.46,57.28 37.16,53.75zm481.18 39.11c28.85,-4.57 63.53,-23.65 100.59,-57.43 36.57,-33.38 74.83,-76.09 113.93,-126.69 39.09,-50.61 76.73,-105.76 115.15,-165.68 38.21,-59.6 71.66,-117.86 102.03,-173.17 31.13,-56.72 60.95,-107.13 80.96,-151.56 20.3,-45.14 34.81,-78.7 39.7,-100.15 -26.77,4.08 -45.01,-5.17 -55.18,-24.77 -10.67,-20.54 -17.07,-45.83 -15.71,-78.23 1.34,-32.57 8.03,-67.9 22.51,-107.3 14.18,-38.59 33.28,-75.81 57.42,-111.68 23.79,-35.35 51.49,-66.98 83.16,-93.03 31.9,-26.23 68.34,-43.08 109.51,-48.78 22.58,-3.11 39.68,1.2 50.85,12.13 12.02,11.77 18.73,25.86 20.29,44.17 1.58,18.28 -0.19,38.29 -5.89,58.81 -6,21.58 -16,39.63 -27.68,55.65 -10.6,14.55 -25.45,23.95 -46.24,28.57 -18.72,4.14 -39.08,5.52 -56.95,3.23 29.39,21.55 59.11,25.53 93.43,10.7 32.09,-13.85 65.44,-33.59 96.71,-58.7 29.83,-23.94 61.52,-49.07 90.84,-75.04 27.98,-24.78 51.69,-39.12 72.22,-41.6 18.44,-2.23 40.93,6.62 63.2,25.29 23.08,19.35 43.48,42.01 59.04,71.14 15.07,28.19 22.39,58.43 24.26,89.71 1.85,30.9 -7.56,57.76 -30.9,79.56 -18.21,17.01 -37.87,48.56 -61.06,93.76 -23.34,45.52 -48.37,97.36 -71.43,155.75 -22.86,57.93 -44.21,118.79 -62.82,181.87 -18.49,62.69 -33.25,119.69 -43.18,170.79 -9.81,50.58 -13.51,93.48 -8.8,125.38 4.79,32.44 19.85,47.21 42.51,44.09 22.58,-3.11 47.3,-16.59 74.44,-43.19 26.36,-25.85 53.17,-56.2 78.58,-89.04 25.9,-33.44 50.27,-65.57 71.52,-96.43 21.41,-31.08 35.51,-52.67 42.93,-63.97 5.48,-8.34 11.6,-11.28 19.82,-12.29 12.29,-1.53 17.28,5.08 11.37,20.47 -6.49,16.91 -16.86,41.1 -33.88,71.8 -17.61,31.76 -37.18,65.64 -58.35,103.54 -21.37,38.25 -44.9,77.25 -72.23,116.74 -27.77,40.12 -56.62,76.45 -87.52,110.44 -30.68,33.75 -64.6,62.92 -98.41,86.3 -35.19,24.34 -69.77,38.12 -106.73,43.13 -65.83,8.92 -113.22,-1.97 -142.91,-32.97 -28.71,-29.96 -47.73,-72.78 -51.41,-127.88 -3.69,-55.09 3.86,-118.55 19.49,-189.81 15.65,-71.25 37.57,-144.06 65.68,-217.97 28.1,-73.92 60.75,-145.45 97.57,-215.09 36.29,-68.62 69.62,-127.34 102.31,-175.2 -22.33,15.92 -44.27,29 -63.88,39.68 -19.6,10.68 -41.12,21.1 -64.69,30.74 -23.41,9.57 -46.56,15.97 -71.23,19.28 -81.77,172.66 -163.32,328.24 -248.46,466.33 -36.21,58.76 -73.87,116.97 -114.17,173.41 -41.77,58.52 -82.89,110.58 -126.09,156.99 -44.1,47.36 -88.74,84.88 -132.77,116.67 -40.92,29.53 -83.32,49.19 -126.55,55.42 -20.58,2.98 -34.89,-3.67 -39.63,-20.46 -4.84,-17.13 -1.04,-37.83 6.17,-60.85 6.95,-22.25 18.53,-44.06 37.15,-66.07 17.38,-20.53 36.72,-32.92 59.41,-36.51zm1838.19 -715.31c-14.37,1.84 -28.42,1.19 -39.96,-3.03 -11.54,-4.22 -20.97,-9.96 -27.88,-17.87 -7.07,-8.11 -9.73,-17.6 -8.15,-29.36 1.52,-11.35 7.03,-22.24 18.63,-33.44 20.53,-2.55 38.7,-12.76 56.96,-33.3 17.41,-19.58 32.09,-43.82 46.03,-72.03 13.76,-27.85 25.12,-58.68 34.39,-90.49 9.46,-32.51 15.38,-61.87 17.99,-88.7 2.59,-26.74 -0.57,-47.8 -7.44,-64.68 -6.8,-16.67 -16.93,-23.99 -33.37,-22.02 -28.69,3.45 -63.19,28.61 -103.36,78.11 -39.66,48.86 -78.13,109.01 -115.09,180.28 -36.62,70.64 -67.06,146.29 -95.15,226.91 -27.82,79.82 -44.97,154.25 -47.91,221.08 -2.94,66.78 11.1,120.73 38.87,161.01 27.96,40.57 79.38,55.11 151.24,46.08 55.41,-6.97 106.28,-25.88 150.61,-54.26 46.21,-29.6 87.37,-59.98 121.66,-94.09 33.3,-33.14 60.58,-66.62 81.69,-97.12 21.49,-31.03 35.87,-52.89 43.31,-66.79 3.35,-6.27 9.49,-10.5 15.63,-11.14 14.32,-1.49 20.04,4.9 13.44,20.09 -10.95,25.18 -31.58,64.24 -60.46,119.35 -28.16,53.74 -63.91,109.51 -109.44,168.2 -44.83,57.79 -95.89,109.92 -156.52,158.16 -59.17,47.08 -127.44,76.74 -201.37,86.43 -129.48,16.98 -226.35,-0.4 -293.5,-53.84 -65.94,-52.47 -107.34,-123.79 -120.41,-215.01 -12.97,-90.4 1.55,-191.81 32.8,-303.75 31.11,-111.39 77.2,-216.6 141.66,-317.61 63.45,-99.42 138.68,-186.26 228.64,-259.07 88.98,-72.01 183.02,-115.27 285.65,-127.84 57.44,-7.03 104.76,1.52 137.75,26.37 32.99,24.84 55.77,58.43 65.24,100.07 9.55,41.92 13.26,88.79 3.39,139.77 -9.96,51.51 -26.79,100.67 -49.97,146.32 -23.51,46.3 -53.95,85.23 -90.64,118.51 -36.9,33.48 -79.79,52.9 -124.96,58.7zm1406.81 15.22c14.31,-1.42 19.25,5.11 13.49,19.71 -6.49,16.49 -16.75,40.29 -33.66,70.18 -17.52,30.96 -36.25,62.87 -60.02,101.08 -22.6,36.32 -44.33,74.96 -71.86,113.9 -27.31,38.64 -56.38,73.92 -87.04,106.78 -30.65,32.85 -64.41,61.29 -98.02,83.47 -35.05,23.12 -69.44,36.09 -106.35,40.29 -32.77,3.72 -58.15,-2.22 -80.47,-17.01 -22.15,-14.69 -39.45,-36.75 -51.58,-66.57 -12.13,-29.83 -19.46,-65.62 -21.91,-107.15 -2.49,-41.88 -4.39,-87.39 0.3,-137.28 -22.49,47.2 -43.13,93.12 -68.84,136.69 -26.61,45.07 -53.58,83.78 -82.64,119.03 -28.82,34.98 -59.04,63.73 -90.36,86.42 -31.29,22.7 -65.4,36.01 -100.24,39.96 -69.69,7.92 -122.78,-3.28 -158.85,-34.4 -36.25,-31.25 -57.48,-75.66 -66.94,-132.57 -9.5,-57.12 -5.57,-123.86 8.83,-200.54 14.12,-75.26 35.67,-153.6 68.02,-235.41 31.86,-80.56 70.01,-160.68 112.99,-239.64 42.8,-78.6 91.03,-150.05 141.73,-213.21 51.15,-63.71 101.98,-116 154.24,-156.17 53.55,-41.14 103.3,-62.79 154.48,-68.02 63.43,-6.5 109.83,5.37 136.7,34.09 27.82,29.75 45.71,65.25 51.86,109.61 35.34,-52.7 70.89,-96.24 108.06,-127.99 38.1,-32.55 75.42,-50.52 114.3,-54.39 67.5,-6.74 113.3,-2 133.33,14.12 20.02,16.14 22.1,32.65 5.59,48.42 -27.47,26.23 -58.64,69 -94.07,129.01 -35.17,59.61 -64.64,127.28 -95.77,201.71 -31.35,74.95 -58.84,151.07 -87.36,229.04 -28.97,79.23 -51.5,150.02 -65.22,214.73 -13.85,65.28 -21.89,117.88 -21.29,158.11 0.61,40.62 14.25,59.03 38.86,56.21 22.55,-2.58 47.26,-17.08 76.73,-45.18 28.43,-27.11 57.16,-58.76 85.39,-94.62 27.76,-35.22 53.16,-70.27 74.3,-102.08 21.89,-32.97 38.3,-55.69 45.65,-69.21 3.39,-6.26 7.41,-10.09 17.64,-11.12zm-817.48 269.98c26.62,-2.98 52.63,-19.06 78.96,-46.77 27.74,-29.17 54.28,-64.2 80.72,-104.85 26.99,-41.45 51.81,-84.95 74.2,-131.33 22.4,-46.38 44.4,-87.41 59.55,-127.49 10.12,-26.76 16.37,-54.4 25.17,-82.09 8.7,-27.34 21.79,-54.63 33.52,-83.99 9.64,-24.13 16.18,-52.65 23.38,-83.75 7.25,-31.28 12.07,-59.95 13.59,-85.91 1.55,-26.79 -1.51,-48.78 -9.25,-66.35 -7.72,-17.58 -22.86,-24.9 -45.39,-22.6 -22.48,2.31 -48.42,23.58 -79.57,66.28 -30.72,42.11 -64.4,95.67 -96.03,158.63 -31.77,63.26 -65.7,130.14 -95.94,202.92 -29.5,70.99 -54.1,139.08 -71.43,200.84 -17.54,62.44 -27.22,112.12 -28.53,151.9 -1.29,39.38 12.46,57.32 37.05,54.56zm2448.59 -406.63c14.27,-0.92 21.77,6.13 15.46,20.11 -11.1,24.65 -33.45,61.69 -61.72,113.66 -28.07,51.61 -61.44,105.99 -106.21,159.3 -46.58,55.45 -98.93,103.51 -159.14,147.56 -58.45,42.76 -126.24,68.17 -199.84,75.08 -128.76,12.07 -223.78,-10.16 -288.16,-63.51 -66.37,-54.99 -105.22,-126.48 -118.41,-214.97 -13.31,-89.4 -4.07,-187.56 27.76,-296.12 31.61,-107.83 77.95,-210.1 139.96,-305.04 62.55,-95.76 139.21,-176.2 228.64,-244.04 88.14,-66.85 183.68,-105.13 283.58,-112.44 71.33,-5.21 120.81,9.28 151.56,43.64 28.93,32.33 42.28,75.77 43.41,127.37 1.12,51.6 -8.63,108.72 -33.21,171.74 -24.72,63.39 -54.84,121.81 -94.31,175.72 -39.67,54.2 -84.71,99.99 -137.83,139.35 -52.26,38.72 -107.18,61.48 -162.32,66.28 -32.67,2.84 -58.57,0.32 -73.72,-7.16 -17.02,-8.41 -29.82,-18.32 -38.37,-29.82 -10.26,46.17 -15.24,90.65 -15.88,133.01 -0.65,42.12 6.36,77.7 19.72,108.33 12.86,29.46 32.89,53.44 61.34,69.13 29.79,16.44 69.7,21.64 118.74,17.58 50.98,-4.23 99.22,-18.74 143.26,-44.63 43.63,-25.63 81.97,-54.04 114.42,-85.25 32.45,-31.21 60.87,-61.62 82.89,-91 22.25,-29.68 35.61,-50.42 42.87,-63.55 3.44,-6.23 9.43,-9.94 15.51,-10.33zm-239.59 -589.23c-24.45,1.72 -50.18,18.11 -79.18,48.4 -29.71,31.01 -61.82,69.37 -92.38,116.45 -30.55,47.08 -57.74,99.51 -85.91,158.38 -27.99,58.49 -52.18,117.84 -68.21,176.93 11.21,6.65 22.87,9.81 39.25,8.28 28.58,-2.67 58.46,-17.42 88.65,-43.8 31.56,-27.56 61.19,-59.19 89.86,-97.79 28.03,-37.74 52.21,-79.14 72.88,-121.62 21.16,-43.44 36.45,-82.91 48.4,-119.53 12.07,-36.98 18.16,-67.76 16.35,-91.56 -1.83,-24.21 -11.38,-35.44 -29.71,-34.14zm2187.29 1234.63c10.15,-0.52 12.41,6.04 7.4,20.01 -4.72,13.17 -14.07,29.45 -32.57,47.05 -18.52,17.59 -43.04,34.15 -73.31,49.7 -30.44,15.65 -67.84,24.24 -108.56,26.85 -36.63,2.35 -67.94,-9.3 -93.91,-37.11 -25.19,-26.96 -47.27,-62.85 -64.54,-105.33 -17.6,-43.33 -34.33,-90.26 -45.47,-142.02 -11.2,-52.14 -22.73,-101.08 -30.56,-147.89 1.74,32.12 2.42,61.65 4.23,88.6 1.53,23.07 1.17,44.12 1.5,63.8 0.36,20.18 -2.08,31.03 -6.44,32.81 -46.93,19.39 -90.82,29.87 -135.58,32.55 -75.28,4.51 -133.88,-14.34 -173.93,-57.36 -39.3,-42.21 -64.04,-101 -75.36,-174.96 -11.23,-73.43 -7.93,-158.5 7.92,-253.76 15.78,-94.79 39.01,-192.58 73.81,-293.41 34.67,-100.43 74.58,-199.85 122.65,-296.36 48.74,-97.87 102.01,-185.06 156.17,-260.54 55.18,-76.89 111.01,-138.21 170.21,-184.76 60.44,-47.55 116.56,-71.21 171.3,-73.06 62.87,-2.11 108.78,12.35 135.73,41.38 27.7,29.86 40.65,57.87 36.94,85.43 -64.85,1.91 -129.41,32.33 -189.89,91.06 -60.25,58.51 -114.59,131.58 -166.72,218.96 -52.12,87.38 -94.18,181.62 -132.77,281.58 -38.9,100.79 -69.48,193.88 -88.24,280.61 -18.62,86.17 -26.3,157.45 -22.76,214.14 3.49,55.93 21.06,83.44 55.61,81.63 8.13,-0.41 20.64,-3.34 35.5,-8.81 -8.05,-30.17 -17.11,-53.41 -24.79,-70.63 -7.82,-17.53 -16.77,-25.62 -26.89,-25.17 -10.17,0.46 -15.63,-3.89 -14.43,-12.82 1.26,-9.3 6.42,-19.17 18.14,-29.78 11.26,-10.19 27.01,-20.74 50.58,-30.95 23.58,-10.22 54.69,-16.34 91.26,-18.16 20.31,-1 40.5,14 62.6,44.78 55.61,-68.25 109.39,-152.32 167.28,-253.06 58.08,-101.07 108.86,-207.31 155.7,-317 47.47,-111.14 90.26,-220.46 123.15,-330.07 32.99,-109.99 51.26,-208.49 57.97,-295.67 6.74,-87.7 -4.1,-158.58 -30.1,-211.25 -26.32,-53.29 -74.22,-78.5 -143.06,-76.84 -56.7,1.37 -117.73,21.37 -179.31,57.51 -63.32,37.17 -124.95,85.59 -187.44,147.96 -61.06,60.94 -121.31,131.02 -181.69,210.2 -59.72,78.29 -116.64,161.16 -168.42,246.54 -51.99,85.73 -98.6,171.33 -139.58,257.12 -40.52,84.84 -71.43,164.12 -94.53,237.47 -22.73,72.21 -34.49,135.98 -37.85,191.17 -3.31,54.38 5.58,93.51 28.66,116.99 -2.94,21.9 -21.23,37.3 -56.74,46.71 -35.64,9.44 -73.67,8.46 -112.81,-1.64 -40.83,-10.55 -76.84,-33.13 -105.5,-71.01 -27.89,-36.86 -35.86,-93.13 -23.73,-168.51 12.51,-77.8 36.34,-165.95 74.12,-265.78 37.42,-98.94 85.63,-200.17 143.55,-301.74 58.32,-102.26 125.46,-202.56 201.65,-298.47 76.91,-96.81 159.96,-182.3 250.8,-258.74 88.98,-74.87 185.75,-136.53 289.16,-183.86 103.06,-47.14 209.55,-72.21 318.92,-74.96 115.43,-2.9 200.53,28.43 257.77,94.34 56.35,64.89 91.64,150.58 104.67,257.02 12.93,105.57 4.9,226.01 -24.34,360.75 -29.19,134.53 -70.6,269.08 -127.15,404.76 -56.71,136.03 -126.35,266.68 -204.39,393.86 -77.1,125.65 -158.63,233.7 -245.21,322.21 13.43,35.12 26.82,70.65 42.32,105.4 15.5,34.75 31.67,65.39 46.09,92.48 14.57,27.36 31.67,48.93 49.74,65.31 17.89,16.22 35.16,23.78 55.47,22.74zm1470 -799.08c14.13,-0.06 19.96,7.02 13.39,20.5 -7.4,15.18 -16.52,36.83 -30.61,62.52 -15.44,28.12 -37.26,55.91 -60.58,90.1 -21.97,32.22 -44.79,67.58 -70.15,101.33 -26.27,34.96 -54.47,66.74 -85.34,94.22 -33.35,29.69 -65.35,52.71 -98.42,71.28 -34.63,19.44 -70.57,29.44 -105.03,30.55 -34.45,1.12 -65.38,-9.07 -88.74,-30.53 -23.35,-21.46 -39.56,-50.95 -50.71,-88.08 -11.14,-37.13 -14.4,-80.48 -14.72,-130.59 -0.31,-50.24 3.9,-103.94 11.6,-161.1 -25.34,53.24 -55.3,104.8 -87.54,155.52 -31.75,49.91 -64.28,94.5 -101.04,135.82 -34.61,38.89 -70.67,72.42 -110.12,98.31 -38.03,24.95 -77.86,38.52 -120.45,40.08 -44.63,1.63 -80.91,-13.76 -104.79,-46.2 -23.89,-32.43 -37.18,-76.37 -44.94,-131.05 -7.77,-54.81 -8.45,-117.09 1.1,-188.05 9.5,-70.56 27.25,-142.6 47.32,-216.62 19.98,-73.64 48.85,-146.05 79.72,-217.37 30.63,-70.77 63.94,-133.48 102.3,-190.24 37.26,-55.1 76.5,-99.93 119.02,-134.34 41.29,-33.41 83.62,-51.54 126.1,-52.19 66.73,-1.01 110.7,6.15 132.19,22.65 20.59,15.81 22.19,31.84 5.97,45.59 -27.09,22.98 -59.12,61.64 -92.2,115.23 -34.04,55.14 -67.27,115.85 -97.35,183.39 -30.67,68.86 -59.17,139.29 -85.06,212.02 -26.04,73.18 -51.14,139.97 -65.34,200.51 -14.21,60.55 -19.87,110.01 -17.96,148.41 1.91,38.05 14.5,57.37 38.8,56.62 20.28,-0.61 40.08,-12.83 63.38,-36.04 23.31,-23.21 47.37,-52.56 72.4,-87.9 24.8,-35.01 48.36,-74.44 72.39,-117.95 24.02,-43.52 45.07,-85.79 67.5,-126.57 23,-41.82 40.42,-78 57.64,-113.3 16.26,-33.33 27.6,-60.29 34.76,-78.29 23.36,-58.75 46.88,-114.64 76.92,-166.64 30.47,-52.74 59.06,-98.26 91.13,-137.18 33.07,-40.14 66.44,-70.33 101.4,-93.57 33.77,-22.46 69.31,-35 103.68,-35.46 66.72,-0.89 110.58,5.62 132.24,22.24 20.42,15.67 22.12,31.29 6.08,44.77 -27.2,22.85 -60.66,60.86 -94.11,114.39 -33.45,53.54 -65.04,114.68 -95.13,181.82 -30.49,68.04 -60.11,138.24 -86.78,209.94 -27.11,72.93 -47.97,138.92 -63.11,198.94 -15.1,59.78 -19.69,108.78 -17.74,146.79 1.94,38.02 14.59,56.54 38.91,55.79 20.26,-0.61 46.37,-12.43 75.64,-37.07 27.63,-23.27 53.96,-51.13 81.8,-82.89 27.01,-30.81 50.01,-61.87 72.66,-89.93 23.39,-28.97 40.51,-48.23 46.51,-60.66 2.58,-5.33 7.35,-9.5 15.41,-9.52z"/>
  <path class="fil4" d="M16854.48 14168.27c14.14,-0.04 20.89,6.76 15.56,19.33 -6.56,15.46 -18.84,35.5 -34.59,62.04 -15.55,26.2 -33.71,55.57 -56.26,88.14 -22.56,32.56 -44.44,65.6 -69.78,98.5 -26.02,33.78 -53.62,65.27 -82.95,91.4 -32.67,29.09 -67.52,49.75 -102.05,68.37 -32.93,17.76 -68.29,27.56 -104.7,28.14 -30.34,0.46 -57.44,-7.49 -79.6,-23.51 -21.98,-15.89 -37.28,-37.92 -49.58,-66.53 -12.29,-28.61 -19.84,-62.44 -22.67,-101.47 -2.81,-39.04 -3.2,-81.28 0.97,-127.13 -21.74,41.53 -43.32,81.84 -68.7,120.46 -25.37,38.61 -51.52,73.32 -78.43,102.84 -27.56,30.22 -57.36,54.21 -88.44,72.23 -32.41,18.82 -64.28,27.66 -98.66,28.21 -70.79,1.16 -123.27,-14.66 -159.25,-46.59 -36.14,-32.08 -56.44,-75.56 -65.3,-129.71 -8.85,-54.16 -4.57,-115.84 8.77,-185.1 13.42,-69.66 35.26,-140.94 65.02,-213.12 30.19,-73.21 67.81,-143.18 111.36,-212.44 43.75,-69.6 89.67,-131.68 140.04,-185.62 51.03,-54.66 104.12,-97.34 154.71,-129.76 51.01,-32.69 101.43,-48.76 149.86,-48.58 62.54,0.22 105.55,14.03 133.32,44.18 26.81,29.13 43.69,65.23 50.27,106.34 36.38,-45.36 71.44,-81.53 107.39,-108.1 35.76,-26.4 73.96,-39.54 110.28,-39.42 68.59,0.21 112.11,8.61 133.76,25.92 20.25,16.19 22.37,32.09 6.08,44.76 -28.81,22.42 -59.17,58.84 -93.73,111.56 -34.03,51.91 -64.54,111.46 -94.52,177.34 -30.22,66.47 -59.7,135.01 -86.03,204.28 -26.8,70.51 -47.44,134.87 -62.41,193.66 -15,58.96 -21.49,107.5 -19.48,144.73 2.04,37.59 14.66,56.14 40.93,55.85 20.22,-0.24 47.68,-12.31 73.35,-35.09 27.04,-23.98 55.76,-49.48 83.49,-80.42 26.89,-30 48.91,-59.01 72.34,-87.51 22.43,-27.29 35.54,-47.24 44.33,-59.46 3.71,-5.17 7.24,-8.7 15.3,-8.72zm-802.7 175.14c26.28,-0.23 54.18,-12.61 79.62,-36.61 25.43,-24 51.08,-54.47 76.64,-89.46 26.41,-36.16 50.45,-74.38 74.01,-115.09 23.77,-41.05 43.99,-77.42 59.61,-112.87 10.68,-24.25 14.93,-50.13 24.14,-74.38 9.51,-25.02 20,-48.79 32.26,-74.68 10.32,-21.79 16.43,-47.29 22.34,-76.04 5.75,-27.94 10.27,-53.91 12.56,-78.22 2.31,-24.8 -1.11,-45.91 -7.72,-62.66 -6.95,-17.59 -22.89,-24.9 -43.06,-25 -22.18,-0.12 -48.81,17.58 -79.94,54.07 -31.16,36.51 -61.7,82.32 -95.27,137.95 -33.97,56.29 -60.34,116.27 -90.82,179.84 -31.24,65.15 -56.06,124.07 -74.7,180.07 -18.64,55.99 -26.89,102.5 -26.77,138.93 0.12,36.7 12.88,54.38 37.1,54.15zm1494.54 -171.54c4.03,0.05 9.91,2.08 13.28,6.28 3.53,4.42 2.83,8.98 -1.81,13.37 -8,14.5 -17.28,35.37 -32.35,60.47 -16.2,26.93 -32.93,55.56 -54.1,86.94 -21.71,32.19 -44.23,64.49 -71.56,96.85 -27.89,33.05 -57.93,63.62 -88.77,89.69 -32.97,27.86 -67.11,49.66 -101.85,66.77 -36.57,18 -74.16,26.17 -112.48,25.97 -88.74,-0.45 -156.61,-24.23 -198.05,-73.16 -40.41,-47.7 -65.65,-111.85 -71.1,-191.54 -5.43,-79.28 3.81,-170.68 30.62,-272.51 26.88,-102.11 63.88,-205.46 108.5,-311.19 44.29,-105 97.37,-207.39 158.59,-308.43 60.73,-100.28 123.08,-189.47 187.48,-268.21 63.64,-77.79 127.54,-140.79 190.66,-186.9 64.46,-47.08 122.31,-68.84 174.58,-67.33 60.31,1.75 101.04,19.3 124.5,49.75 24.69,32.03 35.9,70.73 32.31,119.89 -3.6,49.04 -21.3,105.58 -46.83,167.89 -25.57,62.46 -59.74,126.68 -100.45,191.48 -41.5,66.05 -88.02,129.1 -136.88,192.16 -48.86,63.07 -99.53,119.42 -147.87,168.86 -47.61,48.69 -92.86,90.05 -135.44,121.51 -42.58,31.46 -77.06,47.62 -103.46,48.86 -18.37,61.47 -31.1,118.58 -39.26,171.66 -8.15,53.1 -8.4,99.17 -4.56,138.84 3.76,38.84 16.87,70.42 35.91,93.14 19.21,22.92 45.83,34.46 82.14,34.51 26.24,0.05 53.96,-11.01 85.22,-33.29 31.25,-22.29 62.15,-47.25 89.21,-77.9 25.38,-28.75 49.48,-57.24 72.16,-86.29 21.28,-27.24 37.62,-47.6 46.41,-59.84 3.71,-5.17 9.21,-8.4 15.25,-8.3zm119.39 -1036.91c-18.08,-0.5 -41.2,14.1 -68.07,40.84 -29.09,28.94 -57.07,64.62 -87.48,110.03 -30.19,45.1 -62.19,95.8 -95.27,152.96 -32.66,56.43 -60.03,114.76 -89.67,171.33 -30.16,57.55 -58.95,110.71 -82.53,163.31 -22.58,50.34 -36.89,94.1 -49.69,129.25 38.33,-29.9 74.98,-70.31 114.81,-118.15 42.05,-50.5 81.89,-103.13 120.31,-159.1 39.41,-57.44 75.99,-114.66 110.09,-173.07 34.09,-58.39 64.5,-111.05 85.8,-157.55 21.57,-47.11 38.66,-84.98 47.73,-114.67 8.97,-29.38 6.03,-44.85 -6.03,-45.18zm137.01 1306.29c20.16,0.14 45.47,-11.21 73.08,-33.06 28.86,-22.83 57.47,-47.41 85.07,-77.15 26.7,-28.77 50.12,-57.35 71.95,-84.66 21.83,-27.3 36.92,-46.39 44.17,-58.25 3.09,-5.06 7.18,-8.42 15.25,-8.31 6.05,0.09 9.85,1.78 13.39,5.47 3.53,3.71 1.52,7.77 -1.91,14.19 -7.47,13.99 -15.77,34.71 -30.34,60.49 -14.6,25.82 -34.28,53.91 -55.94,85.7 -21.1,30.96 -44.24,63.99 -69.4,95.67 -25.88,32.58 -53.99,62.65 -84.52,88.13 -33.14,27.64 -65.32,48.02 -99.66,65.57 -32.87,16.81 -68.07,25.68 -104.38,25.69 -44.41,0.02 -80.35,-16.38 -104.47,-48.64 -23.77,-31.79 -38.52,-74.47 -45.47,-126.99 -7.05,-53.29 -8.96,-113.44 0.16,-181.16 9.06,-67.32 26.48,-136.09 47.93,-206.06 21.7,-70.74 47.85,-139.17 78.29,-206.83 30.03,-66.73 63.48,-126.62 100.79,-178.87 37.3,-52.27 76.87,-94.43 117.74,-125.03 42.17,-31.56 82.9,-46.06 127.2,-45.25 64.42,1.18 107.53,10.23 129.52,27.47 21.82,17.1 24.1,31.79 8.15,44.4 -26.95,21.29 -58.69,58.02 -91.23,107.93 -33.61,51.52 -67.01,108.32 -98.01,173.23 -30.82,64.56 -57.96,130.78 -85.36,199.42 -27.4,68.66 -46.98,131.62 -61.86,189.61 -14.83,57.75 -23.18,105.04 -21.11,141.85 2.09,37.19 14.77,55.28 40.97,55.44zm385.84 -1022.05c-1.79,13.38 -12.91,20.62 -35.39,23.05 -20.52,2.21 -42.6,1.21 -68,-4.65 -23.53,-5.43 -44.38,-15.27 -62.66,-29.35 -18.29,-14.06 -26.13,-30.84 -23.61,-49.49 2.56,-19.06 10.03,-44.53 20.55,-77.69 10.51,-33.16 26.79,-65.06 43.42,-97.67 16.32,-32 32.17,-59.72 51.47,-82.51 19.08,-22.54 36.79,-33.37 56.92,-32.89 24.13,0.56 45.87,3.5 69.51,8.33 23.51,4.79 44.71,11.59 61.9,19.99 18.79,9.17 31.98,18.23 42.57,28.65 10.78,10.6 15.36,20.94 13.99,31.06 -2.73,20.28 -12.7,39.78 -30.08,58.48 -18.03,19.39 -35.97,38.05 -54.46,59.72 -17.46,20.46 -36.84,42.82 -55.39,66.62 -18.07,23.19 -26.86,49.57 -30.74,78.35zm1182.91 -420.63c66.22,2.83 109.92,12.23 131.15,30.35 20.43,17.43 22.1,32.74 6.13,44.36 -57.87,42.15 -116.59,103.76 -176.84,189.15 -59.48,84.3 -117.66,177.89 -173,280.59 -54.96,102.02 -105.87,208.29 -149.55,316.28 -44.03,108.86 -83.76,208.88 -112.68,297.32 -29.41,89.92 -51.19,163 -55.82,219.75 -4.67,57.25 6.65,85.61 30.78,86.15 26.18,0.59 53.67,-9.5 84.9,-30.85 31,-21.2 59.52,-45.01 88.82,-75.07 26.93,-27.63 51.33,-55.49 73.8,-83.42 21.23,-26.35 36.08,-46.87 44.11,-57.85 4.35,-5.93 11.17,-7.95 17.21,-7.86 14.11,0.2 18.86,7.16 13.55,19.3 -6.42,14.67 -17.12,34.59 -32.19,59.23 -16.02,26.18 -32.21,54.31 -53.71,84.11 -23.18,32.13 -45.99,62.44 -73.2,93.98 -27.8,32.23 -55.77,61.52 -86.32,86.48 -32.97,26.94 -66.89,46.95 -103.42,63.48 -36.53,16.52 -73.93,24.4 -112.16,23.55 -64.39,-1.44 -104.97,-31.63 -125.36,-88.34 -20.75,-57.67 -26.86,-130.39 -16.71,-220.82 -19.49,39.94 -41.18,78.27 -65.75,113.59 -25.52,36.72 -51.07,67.91 -79.36,94.72 -29.54,28 -57.25,49.21 -87.45,64.92 -30.58,15.9 -63.69,23.31 -97.89,22.54 -68.42,-1.53 -118.25,-19.17 -154.56,-51.39 -35.8,-31.77 -58.74,-73.97 -67.75,-126.51 -9.06,-52.92 -4.09,-112.09 10.02,-179.39 14.07,-67.15 36.77,-134.33 68.01,-205.36 29.86,-67.89 65.52,-136.38 108.09,-203.14 41.85,-65.65 89.48,-124.14 138.61,-175.08 49.38,-51.19 101.37,-91.1 153.58,-121.25 50.65,-29.27 100.85,-44.4 149.02,-42.51 50.21,1.97 89.45,12.62 116.68,32.98 25.94,19.42 46.47,44.55 56.53,74.75 43.85,-85.89 88.31,-167.28 135.76,-243.76 47.92,-77.28 95.44,-144.49 140.15,-201.47 45.41,-57.88 92,-103.4 135.28,-135.32 46.37,-34.2 87.43,-49.64 121.54,-48.19zm-991.38 1351.98c30.17,0.88 58.3,-12.46 88.21,-40.55 30.15,-28.3 57.44,-61.73 86.51,-102.72 28.23,-39.82 55.33,-81.68 77.39,-125.19 21.88,-43.16 44.46,-79.75 57.21,-110.07 5.12,-12.18 7.46,-25.48 13.23,-38.38 0.12,-0.82 0.23,-1.64 0.33,-2.44 0.38,-2.83 1.01,-5.52 3.17,-8.49 2.8,-3.86 3.11,-8.08 3.59,-11.73 0.45,-3.24 3.9,-5.93 5.29,-9.25 7.64,-18.3 15.91,-42.82 23.87,-72.37 8.16,-30.34 12.99,-59.06 15.76,-87.1 2.76,-27.97 1.19,-51.63 -4.33,-72.77 -5.17,-19.77 -18.09,-30.68 -44.21,-31.52 -20.1,-0.64 -46.5,15.58 -77.38,50.05 -30.88,34.48 -60.88,77.96 -94.4,131.45 -33.3,53.17 -62.26,109.91 -91.68,171.3 -29.53,61.65 -55.3,118.41 -73.66,172.37 -18.37,53.96 -26.36,98.45 -26.07,133.67 0.3,35.49 13.06,53.04 37.17,53.74zm1875.84 -95.31c14.04,0.71 21.73,7.9 15.46,20.13 -7.63,14.84 -20.6,33.02 -36.06,57.96 -15.46,24.96 -33.18,52.84 -55.61,83.28 -22.01,29.83 -43.3,61.16 -68.8,91.2 -27.31,32.19 -55.88,59.5 -85.99,84.05 -31.11,25.33 -62.74,44 -96.88,59.92 -32.63,15.2 -67.67,22.86 -103.78,21.23 -30.08,-1.35 -57.4,-9.91 -79.21,-26.34 -22.16,-16.69 -37.07,-39.55 -49.42,-67.75 -12.34,-28.2 -19.92,-61.24 -22.94,-99.43 -2.94,-37.42 -3.58,-78.45 -1.65,-122.7 -19.39,39.11 -40.51,76.63 -65.65,112.78 -24.9,35.83 -50.44,68.49 -77.33,94.73 -28.92,28.21 -56.78,49.31 -87.4,64.53 -32.11,15.94 -63.58,22.47 -97.75,21.32 -72.32,-2.42 -122.73,-18.72 -158.7,-50.64 -36.13,-32.09 -54.5,-75.31 -63.6,-127.27 -9.17,-52.35 -8.2,-111.48 5.71,-177.41 13.95,-66.1 35.16,-133.44 65.51,-201.74 30.45,-68.51 67.99,-135.45 109.67,-199.88 42.41,-65.55 89.09,-122.68 140.35,-173.01 51.06,-50.13 102.83,-89.09 153.14,-118.01 50.32,-28.91 100.52,-41.99 148.64,-39.68 60.16,2.91 104.86,19.32 132.61,49.46 26.84,29.14 43.77,64.82 50.45,105.13 36,-42.53 70.76,-75.73 106.26,-99.58 35.5,-23.86 73.3,-34.73 109.38,-32.95 68.18,3.4 111.59,13.34 133.05,31.19 20.3,16.89 22.27,32.5 6.2,43.97 -28.59,20.38 -58.56,53.91 -92.59,103.04 -33.63,48.6 -65.69,104.95 -95.16,167.18 -29.76,62.82 -60.47,127.22 -86.63,193.71 -25.97,65.99 -46.43,127.54 -61.09,183.93 -14.61,56.12 -22.83,102.6 -20.68,138.62 2.19,36.78 14.75,55.35 40.83,56.64 20.03,0.99 45.35,-9.47 72.62,-29.81 28.82,-21.48 57.08,-44.57 84.53,-73.09 26.52,-27.57 48.11,-54.69 71.51,-81.42 21.9,-25 37.09,-43.94 45.8,-55.39 3.62,-4.74 7.19,-8.3 15.2,-7.9zm-796.09 126.09c24.07,1.15 51.67,-9.01 76.78,-30.56 25.1,-21.57 50.37,-49.68 75.66,-82.17 25.97,-33.38 48.92,-69.55 72.98,-107.39 24.57,-38.63 44.73,-72.39 58.56,-105.17 9.98,-23.6 16.62,-48.07 25.72,-71.12 9.25,-23.39 19.5,-45.96 31.71,-70.61 9.98,-20.18 15.2,-44.96 21.69,-71.17 6.75,-27.24 12.07,-52.26 14.23,-75.76 2.22,-23.99 -1.29,-43.93 -7.99,-60.63 -6.91,-17.24 -22.79,-25.56 -42.83,-26.63 -22.03,-1.16 -48.63,14.98 -79.18,48.4 -31,33.93 -62.81,76.67 -96.09,128.99 -33.27,52.31 -59.43,109 -89.21,168.08 -30.8,61.1 -57.08,116.8 -73.34,169.94 -16.17,52.82 -25.13,96.89 -25.86,132.04 -0.72,35.61 13.14,52.61 37.17,53.76zm2075.09 -1260.63c62.03,3.98 105.51,14.33 126.79,32.71 20.31,17.56 22.3,32.53 6.14,44.37 -55.51,40.73 -112.57,101.55 -172.1,183.93 -59.53,82.41 -118.87,173.04 -176.12,273.64 -56.43,99.22 -108.92,202.9 -152.64,309.34 -43.35,105.54 -82.1,203.88 -111.76,290.42 -30.18,88.1 -50.76,159.76 -55.27,215.69 -4.56,56.46 6.68,85.27 30.68,86.97 25.98,1.86 53.47,-7.35 84.45,-27.61 30.99,-20.26 60.84,-43.37 88.33,-71.41 26.32,-26.83 50.92,-53.14 73.42,-80.59 21.01,-25.6 37.19,-44.74 45.92,-56.19 3.61,-4.74 9.07,-7.42 15.08,-7.1 14.02,0.76 19.99,7.49 13.44,20.11 -7.08,13.63 -17.81,32.98 -31.92,57.21 -14.75,25.32 -32.65,52.71 -53.43,82.08 -21.6,30.55 -46.07,60.62 -72.72,90.35 -27.97,31.19 -55.87,59.09 -87.91,83.19 -33.1,24.91 -64.36,44.51 -100.84,59.47 -36.15,14.83 -73.42,20.64 -111.45,18.28 -64.04,-3.99 -105.52,-34.84 -124.92,-91.59 -19.69,-57.55 -24.9,-129.95 -14.91,-219.15 -21.36,38.68 -43.61,75.37 -67.29,109.89 -24.03,35.07 -48.75,65.51 -76.84,91.1 -29.42,26.78 -56.88,45.81 -86.85,60.47 -30.53,14.92 -63.46,21.55 -97.58,20.12 -68.22,-2.9 -120.26,-20.59 -156.35,-53.07 -35.91,-32.33 -54.51,-75.29 -63.61,-127.25 -9.17,-52.37 -7.35,-110.6 7.62,-176.59 14.78,-65.18 36.75,-131.19 67.19,-199.27 30.2,-67.53 66.2,-133.17 109.33,-197.44 42.71,-63.63 89.41,-120.06 139.93,-169.77 49.53,-48.75 98.75,-88.2 148.89,-116.45 50.33,-28.36 100.34,-40.72 148.38,-37.64 50.02,3.22 88.96,14.55 116.39,35 27.6,20.57 46.32,45.76 56.38,75.97 43.58,-83.85 88.53,-162.81 136.95,-237.66 48.43,-74.83 94.76,-140.57 141.46,-196.16 47.04,-55.96 91.37,-99.98 134.67,-130.85 46.02,-32.82 87.06,-46.83 123.07,-44.52zm-991.7 1309.33c30.08,1.33 60.01,-10.9 87.84,-37.72 27.83,-26.8 57.7,-58.03 85.89,-98.26 26.78,-38.22 56.51,-77.63 78.82,-120.72 21.49,-41.48 42.23,-77.72 54.8,-107.24 5.19,-12.17 7.47,-25.48 13.14,-37.58 0.11,-0.82 0.22,-1.63 0.32,-2.44 0.33,-2.42 2.13,-5.75 3.11,-8.07 2,-4.68 5.12,-8.06 5.61,-11.71 0.43,-3.24 1.93,-5.87 3.22,-8.88 7.65,-17.86 16.74,-41.82 25.72,-71.13 9,-29.35 9.81,-57.87 13.47,-85.09 3.78,-28.05 1.22,-51.25 -4.39,-72.37 -5.14,-19.38 -18.09,-30.58 -44.09,-32.32 -20,-1.35 -46.25,14.43 -77.05,47.62 -30.58,32.92 -60.65,75.03 -93.69,126.18 -33.24,51.45 -59.1,107.4 -89.02,166.45 -30.57,60.34 -57.82,115.33 -75.12,168.29 -17.05,52.22 -25.04,96.08 -25.74,131.23 -0.69,35.22 13.08,52.69 37.16,53.76zm1664.31 -53.33c13.97,1.06 20.02,8.38 13.44,20.11 -12,21.36 -31.33,52.76 -59.37,96.21 -28.05,43.46 -62.12,87.33 -106.43,130.87 -44.07,43.31 -93.75,80.41 -152.26,111.51 -56.7,30.17 -122.74,42.52 -194.81,37.78 -126.01,-8.3 -219.97,-40.91 -283.37,-99.17 -64.12,-58.94 -103.72,-128.67 -116.88,-211.31 -13.08,-82.24 -0.64,-169.19 31.45,-263.56 31.41,-92.43 72.33,-178.14 135.36,-255.96 62.83,-77.53 136.37,-140.4 223.4,-190.09 85.69,-48.92 177,-70.48 276.98,-63.4 65.95,4.67 115.31,24.54 145.57,58.18 31.19,34.67 45.45,75.13 46.19,121.72 0.76,47.28 -9.18,97.75 -32.61,152.25 -23.58,54.88 -52.98,104.73 -92.59,148.13 -40.93,44.82 -83.84,79.13 -137.68,108.08 -50.61,27.22 -104.25,39.76 -156.28,36.31 -33.99,-2.27 -57.31,-8 -72.39,-16.9 -16.7,-9.85 -29.5,-20.74 -38.05,-32.24 -11.51,40.45 -15.78,79.86 -17.9,117.94 -2.15,38.65 5.25,71.53 18.7,101.01 13.05,28.6 34.83,53.51 62.97,72.01 29.35,19.3 66.69,29.61 116.61,33.38 49.96,3.77 97.18,-2.86 137.86,-19.52 42.62,-17.46 80.13,-37.33 113.27,-61.72 31.83,-23.41 57.55,-47.33 80.28,-71.54 22.05,-23.49 34.84,-42.64 41.45,-53.01 3.74,-5.89 11.1,-7.51 17.09,-7.07zm-234.38 -568.02c-21.99,-1.65 -48.43,7.52 -79.01,32.16 -28.34,22.86 -57.12,54.86 -87.25,93.37 -30.82,39.41 -59.34,82.06 -86.38,131.97 -26.67,49.22 -49.74,99.6 -66.74,150.95 9.03,7.84 22.56,12.28 36.58,13.12 30.01,1.82 58.36,-9.02 86.47,-27.57 34.03,-22.47 63.12,-44.99 91,-76.27 26.79,-30.07 49.53,-63.14 72.01,-100.09 21.59,-35.51 35.43,-69.38 48.05,-102.07 12.17,-31.53 15.89,-58.65 14.82,-80.2 -1.09,-22.34 -11.59,-34.02 -29.55,-35.37zm992.34 -594.42c37.98,2.65 71.65,8.4 102.46,18.56 31.03,10.23 55.28,21.98 72.08,34.36 18.09,13.31 30.03,26.03 35.16,38.69 5.49,13.52 2.87,23.6 -8.29,31.56 -11.15,7.95 -30.68,27.45 -58.54,60.09 -27.27,31.96 -59.02,73.48 -95.54,124.93 -35.69,50.27 -75.85,107.75 -118.03,172.12 -41.64,63.57 -79.12,130.91 -115.87,201 -36.58,69.79 -67.39,141.21 -91.37,213.96 -23.74,71.97 -44.52,141.61 -48.25,208.48 -0.54,9.91 -8.67,19.39 -26.09,28.87 -17.43,9.49 -46.02,12.13 -84,9.34 -51.95,-3.8 -86.61,-21.5 -105.56,-55.56 -18.43,-33.11 -21.62,-72.65 -14.67,-115.99 5.47,-34.08 19,-81.39 41.64,-144.39 22.52,-62.65 50.67,-129.77 83.74,-202.3 32.8,-71.93 66.99,-145.69 106.41,-220.63 39.24,-74.62 78.41,-142.29 118.2,-203.4 39.08,-60.01 74.94,-109.73 110.52,-146.25 37,-37.97 68,-55.38 96,-53.44zm-431.08 1583.17c-1.4,10.32 -8.68,19.36 -26.1,28.85 -17.42,9.49 -44.12,12.89 -82.04,9.77 -51.9,-4.27 -92.89,-16.09 -122.34,-35.9 -29.77,-20.03 -41.32,-51.38 -33.78,-93.92 9.25,-52.26 17.93,-94.97 29.44,-128.73 11.79,-34.56 23.7,-61.82 37.22,-81.51 14.09,-20.54 30.83,-34.08 45.96,-41.57 15.14,-7.49 29.69,-10.6 43.68,-9.52 37.95,2.91 67.52,7.95 88.74,15.5 19.22,6.84 34.58,15.94 44.68,27.88 9.06,10.69 11.67,25.51 12.39,42.82 0.72,16.88 -2.38,36.43 -5.94,59.22 -10.84,69.29 -22.64,138.16 -31.91,207.11z"/>
  <path class="fil4" d="M12550.16 13252.42c15.01,8.76 27.96,17.8 39.27,27.89 11.41,10.18 19.91,19.52 25.33,27.56 3.35,4.96 9.49,18.96 14.22,31.06 13.11,33.48 9.7,64.71 -17.02,76.39 -14.43,6.31 -31.77,15.28 -52.07,26.94 -19.82,11.39 -42.28,24.59 -66.25,39.91 -23.66,15.12 -48.77,29.23 -74.5,47.78 -47.1,33.99 -200.38,59.17 -205.27,15.98 -4.46,-39.38 63.48,-119.68 94.84,-149.59 21.03,-20.06 42.8,-40.53 66.83,-60.35 23.91,-19.74 47.04,-36.93 69.71,-51.53 22.27,-14.33 42.11,-25.5 60.42,-31.81 19.03,-6.56 33.42,-6.69 44.49,-0.23z"/>
  <path class="fil2" d="M17142.93 5359.46l156.34 0c34.5,0 69.47,-27.58 78.71,-62.08l40.64 -151.74c9.24,-34.5 -11.04,-62.09 -45.46,-62.09l-643.79 0c-34.42,0 -69.48,27.66 -78.7,62.09l-40.64 151.74c-9.21,34.43 10.97,62.08 45.45,62.08l156.36 0 -352.81 1317.46c-9.22,34.43 10.96,62.09 45.45,62.09l206.93 0c34.49,0 69.46,-27.59 78.71,-62.09l352.81 -1317.46zm633.77 1317.46l154.85 -1531.28c3.48,-34.4 -22.53,-62.09 -56.94,-62.09l-103.47 0 -2.3 0 -103.47 0c-32.12,0 -73.12,28.06 -87.89,62.09l-665.29 1531.28c-15.14,34.86 1.76,62.09 33.95,62.09l213.84 0c32.19,0 71.74,-20.33 83.14,-52.88l68.44 -195.44 165.54 0 -36.25 195.44c-5.43,29.33 22.63,52.88 52.51,52.88l213.83 0c34.5,0 66,-27.45 69.51,-62.09zm-376.28 -432.25l233.41 -648.39 -113.85 648.39 -119.56 0zm1182.25 -885.21l156.34 0c34.5,0 69.46,-27.58 78.71,-62.08l40.64 -151.74c9.24,-34.5 -11.04,-62.09 -45.47,-62.09l-643.79 0c-34.41,0 -69.47,27.66 -78.69,62.09l-40.64 151.74c-9.21,34.43 10.97,62.08 45.45,62.08l156.36 0 -352.81 1317.46c-9.22,34.43 10.96,62.09 45.44,62.09l206.94 0c34.49,0 69.46,-27.59 78.7,-62.09l352.82 -1317.46zm689.75 -213.82c9.24,-34.5 -11.04,-62.09 -45.45,-62.09l-202.33 0c-34.43,0 -69.5,27.66 -78.71,62.09l-410.07 1531.28c-9.22,34.43 10.96,62.09 45.46,62.09l202.33 0c34.48,0 69.45,-27.59 78.69,-62.09l410.08 -1531.28zm757.12 6.89c-51.16,-68.38 -141.53,-89.67 -242.7,-89.67 -101.17,0 -202.89,21.26 -290.73,89.67 -95.13,74.09 -159.77,158.72 -189.92,271.31l-264.14 986.37c-30.14,112.59 -10.91,195.47 44.62,271.31 50.47,68.94 141.52,89.68 242.69,89.68 101.17,0 203.31,-20.74 290.73,-89.68 96.15,-75.84 159.73,-158.65 189.91,-271.31l70.2 -262.11c9.24,-34.49 -11.04,-62.08 -45.47,-62.08l-202.33 0c-34.41,0 -69.48,27.66 -78.69,62.08l-75.12 280.51c-12.9,48.22 -55.55,52.89 -71.65,52.89 -16.09,0 -56.25,-4.6 -43.32,-52.89l273.99 -1023.17c12.93,-48.28 55.56,-52.87 71.65,-52.87 16.09,0 56.22,4.66 43.32,52.87l-78.19 292.01c-9.22,34.42 10.95,62.08 45.43,62.08l202.34 0c34.49,0 69.47,-27.59 78.72,-62.08l73.26 -273.61c30.16,-112.66 10.78,-197.26 -44.6,-271.31zm594.45 1524.39l154.85 -1531.28c3.48,-34.4 -22.53,-62.09 -56.94,-62.09l-103.47 0 -2.3 0 -103.47 0c-32.12,0 -73.12,28.06 -87.89,62.09l-665.3 1531.28c-15.13,34.86 1.77,62.09 33.96,62.09l213.84 0c32.19,0 71.74,-20.33 83.14,-52.88l68.44 -195.44 165.54 0 -36.25 195.44c-5.43,29.33 22.63,52.88 52.51,52.88l213.83 0c34.5,0 66,-27.45 69.51,-62.09zm-376.28 -432.25l233.41 -648.39 -113.85 648.39 -119.56 0zm857.74 197.73l347.27 -1296.76c9.24,-34.5 -11.03,-62.09 -45.45,-62.09l-213.84 0c-34.41,0 -69.48,27.66 -78.69,62.09l-410.07 1531.28c-9.22,34.43 10.96,62.09 45.44,62.09l517.35 0c34.48,0 69.45,-27.59 78.69,-62.09l46.18 -172.43c9.25,-34.5 -11.03,-62.09 -45.45,-62.09l-241.43 0zm891.63 9.2l108.98 -406.96 163.25 0c34.48,0 69.48,-27.6 78.71,-62.08l30.78 -114.97c9.24,-34.48 -10.98,-62.07 -45.46,-62.07l-163.25 0 119.46 -446.06 241.43 0c34.48,0 69.45,-27.58 78.69,-62.08l40.64 -151.74c9.24,-34.5 -11.02,-62.09 -45.45,-62.09l-517.34 0c-34.43,0 -69.48,27.65 -78.69,62.09l-410.08 1531.28c-9.23,34.5 10.97,62.09 45.45,62.09l517.34 0c34.48,0 69.47,-27.59 78.69,-62.09l43.73 -163.23c9.23,-34.5 -10.97,-62.09 -45.45,-62.09l-241.43 0zm1433.85 225.32l154.85 -1531.28c3.48,-34.4 -22.58,-62.09 -56.94,-62.09l-103.47 0 -2.3 0 -103.47 0c-32.06,0 -73.15,28.12 -87.89,62.09l-665.29 1531.28c-15.11,34.81 1.76,62.09 33.95,62.09l213.84 0c32.19,0 71.75,-20.33 83.14,-52.88l68.44 -195.44 165.54 0 -36.24 195.44c-5.42,29.28 22.62,52.88 52.5,52.88l213.83 0c34.5,0 66,-27.45 69.51,-62.09zm-376.28 -432.25l233.42 -648.39 -113.86 648.39 -119.56 0zm1211.91 -1099.03c9.24,-34.5 -11.09,-62.09 -45.45,-62.09l-202.33 0c-34.38,0 -69.52,27.72 -78.71,62.09l-410.07 1531.28c-9.19,34.38 10.96,62.09 45.46,62.09l202.33 0c34.48,0 69.45,-27.59 78.69,-62.09l410.08 -1531.28zm489.01 1506l112.69 -420.76c27.09,-101.16 24.28,-202.33 -42.93,-269.02 81.17,-71.27 159.91,-167.85 187,-269.01l56.65 -211.52c30.18,-112.67 15.81,-213.89 -38,-287.41 -52.13,-71.22 -138.41,-110.37 -239.45,-110.37l-321.9 0c-34.36,0 -69.51,27.72 -78.7,62.09l-410.07 1531.28c-9.19,34.38 10.97,62.09 45.45,62.09 96.56,0 154.05,0 202.33,0 34.5,0 69.47,-27.59 78.71,-62.09l14.16 -52.88 143.46 -535.71 57.48 0c41.39,0 51.29,23.11 39.02,68.97l-133.61 498.93c-12.27,45.86 -10.67,82.78 5.42,82.78l248.31 0c91.98,0 62.28,-43.68 73.98,-87.37zm-84.5 -903.6c-12.23,45.72 -32.4,68.97 -75.95,68.97l-57.49 0 123.77 -462.15 57.48 0c43.68,0 50.66,25.42 38.39,71.27l-86.2 321.91zm1018.52 206.93l-187.68 -209.24c-45.62,-50.87 -80.39,-68.98 -59.46,-147.14l51.71 -193.15c11.08,-41.38 43.45,-50.58 64.13,-50.58 16.11,0 45.8,9.33 34.14,52.89l-51.73 193.13c-9.2,34.37 10.96,62.08 45.44,62.08l197.74 0c34.49,0 69.46,-27.58 78.7,-62.08l47.41 -177.04c28.33,-105.77 15.04,-193.33 -44.6,-271.31 -47.53,-62.15 -116.23,-89.67 -233.49,-89.67 -119.57,0 -203,27.52 -283.84,89.67 -101.44,77.98 -161.59,165.54 -189.92,271.31 0,0 -54.22,202.42 -55.41,206.94 -27.01,101.12 -17.15,164.15 32.24,223.02l181.25 216.12c61.27,73.05 76.67,82.91 57.63,154.05l-54.19 202.34c-12.28,45.86 -57.25,50.59 -68.75,50.59 -13.78,0 -56.24,-4.6 -43.93,-50.59l58.5 -218.43c9.23,-34.48 -11.09,-62.07 -45.45,-62.07l-193.15 0c-34.35,0 -69.5,27.71 -78.69,62.07l-54.19 202.33c-28.28,105.65 -13.59,190.4 45.23,269.02 47.74,63.82 115.62,91.97 232.88,91.97 121.86,0 214.62,-30.44 293.65,-91.97 100.95,-78.61 160.97,-163.25 189.29,-269.02l51.72 -193.13c33.87,-126.46 43.68,-194.24 -17.18,-262.11zm1024.43 -802.44c-52.64,-68.88 -146.13,-89.67 -247.3,-89.67 -101.17,0 -206.09,20.18 -295.33,89.67 -93.66,72.94 -157.48,158.78 -186.99,269l-265.37 990.99c-30.14,112.54 -10.89,195.48 42.92,269 52.13,71.22 146.12,89.68 247.29,89.68 101.17,0 204.6,-19 295.33,-89.68 95.09,-74.06 159.12,-156.34 189.29,-269l265.38 -990.99c29.55,-110.35 10.87,-195.57 -45.22,-269zm-551.58 1278.38c-12.24,45.74 -57.83,52.88 -76.23,52.88 -16.09,0 -57.94,-6.89 -45.63,-52.88l275.23 -1027.76c12.32,-45.99 57.24,-50.58 73.33,-50.58 18.4,0 60.81,4.71 48.53,50.58l-275.23 1027.76zm917.23 -625.39l119.46 -446.06 241.43 0c34.48,0 69.45,-27.58 78.69,-62.08l40.64 -151.74c9.24,-34.5 -11.09,-62.09 -45.45,-62.09l-517.34 0c-34.36,0 -69.51,27.72 -78.69,62.09l-410.08 1531.28c-9.18,34.38 10.97,62.09 45.45,62.09l213.84 0c34.48,0 69.45,-27.59 78.69,-62.09l169.33 -632.28 163.25 0c34.48,0 69.48,-27.6 78.71,-62.08l30.78 -114.97c9.23,-34.48 -11.1,-62.07 -45.46,-62.07l-163.25 0zm1007.16 -446.06l156.35 0c34.49,0 69.46,-27.58 78.7,-62.08l40.64 -151.74c9.25,-34.5 -11.09,-62.09 -45.46,-62.09l-643.79 0c-34.36,0 -69.49,27.72 -78.69,62.09l-40.64 151.74c-9.2,34.37 10.97,62.08 45.45,62.08l156.36 0 -352.82 1317.46c-9.18,34.38 10.97,62.09 45.45,62.09l206.94 0c34.49,0 69.46,-27.59 78.7,-62.09l352.81 -1317.46z"/>
 </g>
</svg>
